<mxfile host="app.diagrams.net" modified="2024-05-27T10:52:42.647Z" agent="Mozilla/5.0 (Windows NT 10.0; Win64; x64) AppleWebKit/537.36 (KHTML, like Gecko) Chrome/125.0.0.0 Safari/537.36" etag="db6aueG1DdSF5QMwet83" version="24.4.0" type="device">
  <diagram name="Pagina-1" id="gyTtOpCJsAdMTVuZoIWv">
    <mxGraphModel dx="2261" dy="1923" grid="1" gridSize="10" guides="1" tooltips="1" connect="1" arrows="1" fold="1" page="1" pageScale="1" pageWidth="827" pageHeight="1169" math="0" shadow="0">
      <root>
        <mxCell id="0" />
        <mxCell id="1" parent="0" />
        <UserObject label="" link="http://localhost/UNeedIT/Photos/cropped-logo%20UNEED-IT.png" id="zIQvrJ37hkbYqZpQsWY6-2">
          <mxCell style="rounded=0;whiteSpace=wrap;html=1;fillColor=#000000;strokeColor=#FFFFFF;strokeWidth=2;" vertex="1" parent="1">
            <mxGeometry width="830" height="1080" as="geometry" />
          </mxCell>
        </UserObject>
        <mxCell id="zIQvrJ37hkbYqZpQsWY6-5" value="" style="rounded=0;whiteSpace=wrap;html=1;fillColor=#cce5ff;strokeColor=#FFFFFF;strokeWidth=2;" vertex="1" parent="1">
          <mxGeometry width="830" height="110" as="geometry" />
        </mxCell>
        <mxCell id="zIQvrJ37hkbYqZpQsWY6-3" value="&lt;span style=&quot;font-size: 20px;&quot;&gt;Home&lt;/span&gt;" style="text;html=1;align=center;verticalAlign=middle;whiteSpace=wrap;rounded=0;" vertex="1" parent="1">
          <mxGeometry x="358" y="32.5" width="72" height="45" as="geometry" />
        </mxCell>
        <mxCell id="zIQvrJ37hkbYqZpQsWY6-4" value="" style="shape=image;verticalLabelPosition=bottom;labelBackgroundColor=default;verticalAlign=top;aspect=fixed;imageAspect=0;image=data:image/png,iVBORw0KGgoAAAANSUhEUgAABQAAAAGQCAYAAADxzc2nAAAACXBIWXMAAA7EAAAOxAGVKw4bAAAgAElEQVR4nOzdfZxkVX3v++/ae9dDVz9MzwNDM47jTNFNDBqCBBWJGq4xXGMMag0qggpq1HiN8eZ6OARx5CoMIxKiSIxGPTHJETWJU1EPx5uoQVDCIYQg4fjicuie6nEcEIdhpp+7uqr2XuePmpGZoWema/eu3ntXfd6vV7+Yh15rf+npqq79q7XWTwIAAAAAAAAAAAAAAAAAAAAAAAAAAAAAAAAAAAAAAAAAAAAAAAAAAAAAAAAAAAAAAAAAAAAAAAAAAAAAAAAAAAAAAAAAAAAAAAAAAAAAAAAAAAAAAAAAAAAAAAAAAAAAAAAAAAAAAAAAAAAAAAAAAAAAAAAAAAAAAAAAAAAAAAAAAAAAAAAAAAAAAAAAAAAAAAAAAAAAAAAAAAAAAAAAAAAAAAAAAAAAAAAAAAAAAAAAAAAAAAAAAAAAAAAAAAAAAAAAAAAAAAAAAAAAAAAAAAAAAAAAAAAAAAAAAAAAAAAAAAAAAAAAAAAAAAAAAAAAAAAAAAAAAAAAAAAAAAAAAAAAAAAAAAAAAAAAAAAAAAAAAAAAAAAAAAAAAAAAAAAAAAAAAAAAAAAAAAAAAAAAAAAAAAAAAAAAAAAAAAAAAAAAAAAAAAAAAAAAAAAAAAAAAAAAAAAAAAAAAAAAAAAAAAAAAAAAAAAAAAAAAAAAAAAAAAAAAAAAAAAAAAAAAAAAAAAAAAAAAAAAAAAAAAAAAAAAAAAAAAAAAAAAAAAAAAAAAAAAAAAAAAAAAAAAAAAAAAAAAAAAAAAAAAAAAAAAAAAAAAAAAAAAAAAAAAAAAAAAAAAAAAAAAAAAAAAAAAAAAAAAAAAAAAAAAAAAAAAAAAAAAAAAAAAAAAAAAAAAAAAAAAAAAAAAAAAAAAAAAAAAAAAAAAAAAAAAAAAAAAAAAAAAAAAAAAAAAAAAAAAAAAAAAAAAAAAAAAAAAAAAAGgjE3eAY5VHii+XdEbcORYRlEYrfxl3iCQrDxf7ZHSxJC/uLIvYXRqtfC/uEMe6pNAz5NVql7Q2yuz5cqNRbk8iRK08Uny+pPNaGDJlbVDeOra70a5MUbnr1371QknFlbzmXHUhmK/VgpW8ZmpY3Vkaq4zFdfnyyJaLJLM+ruvjGNbeURobr8R1+fJI8UJJm+K6foQakmqHPhpH/H7uFx/WzkmaMYGdeH1lN89PSK1V9/7PjVWZ10Q1n/3JY57dszcb1XxL5dQXfrDwof/r/uXMkfnEF6+QMWtaGdN4ckJ2bp7ngCTwXOncs6pat7rdr6cPSPZ2verXa22+DhCJJBZq3i7pirhDLKIqiQLgia2RdKukvriDLOIbkhJXADTWFk3D/2SLw2be4nm1Lzcat7clFKJ2oaSbW/j8MSPdruZNZmL984UXOvr5Y++Vta9byetmjTS/khdMl7dKiq0AKJmrJJ0f3/VxFGPeICm2AqCk90m6KMbrrxzTfD/duiYojxQfl/S4pD2S9kr66aH/7pW0T1ZTVnZi69g4N4tInJp05oLRZyOZLAikakPKr/xtgWucKyUtqwBYz/ddKWPObGnQoJHqy7kqIjPQK61etRJXekjSnZIOrMTF4razueBnvZHykhxJDcnuK42Od8z//87hLY6RWSejQTXrZYGkGSvt2zpaSf3P7iQWAAGcWJ/x/Zsuy2YevK1W3xt3GETHMUY5z5V3ynpHY7vjjpNInuPIcxw1At5gB5A4jqSNhz5etMjf12Q0ZWQOlEeKD0v6H5IelLVjca7WBNpidl6ano07xcrqyUueJzUS/R5udxhaK7lO3Ck6Rnm4+HwZXSnp5ZKG1CwASlIgmX3lkeIdsro2zp0oUSiPFM+QtEPN/881av5cDyTNGenR8kjx6iCw37t413hqb0QoAAJpZO1zTaNx1SX9fR/42vRMap+AIBljlHGMcq6nrOtIxsjP508+sIv1eK6m2QUMIH2yktYd+jhDUnMFtTEqjxT3qbmK5F9k9aCMxmygJ7buqvBkh3TaPylZG3eKleW5Ul+PNDEdd5Lu5rnSs4fiTtExyiPFMyX9q6TCIn/tqFkQvFRGF5VHiq8tjVbuWNGAESmPbLlE0pf0dHHzMEfNHY7nSPonxzF/Ux4uvr80Vpla6YxRoCwOpJSx9m3e/Pwr4s6BcFxj1ON5Gshm1J/NNot/WJKM6ybvAFsAWJ71kt4o6RYZ3SXpX4yj28ojxf+nPFI8d+fIlhU/Rw0IreFLT03GnSIehZ64E+CU1c0iIJatPFJcI+kWLV78O1afpNt2NlfRpUp5uPhyyfwXPbP4t5i3yejWnSPFVP5c5o4TSCurAeMHt1yW8TbGHQVLY4yUdV31ZzMazOdUyHjyHJ6GW2XU/DoCQAfbLOkSNc+Q/Tcj81h5pHhreaT4qvJIcWhncTM/PJBcTx5sngHYjfJZKZfKukBncBxp84a4U3SSD0h6ZQufP2Sk23YOF1OznWnncHGNjP6rllbkPOxtRoqsYdJK4sUDkGbWnmmCYFvcMXBiT6/2y6o/m6F4FYG8xypAAF1lnaQ/kPT/SfqhcZ3Plke2vLI8vDk1N1noEkEg7Z+IO0W8BnrjTtC9+nqkvlbqODienadvKaj5c6dVZ8vo7KjztIsxukDSphBDPxBxlBVBARBIOeMH77jM8y6MOwcW15/PaSCXZbVfxFzHkcvXE0B3Gpb0bsl8U8b5l/JI8cNsE0ZizFalauobZS5PT17KcNR+LIbWSg5vEUfBOOYsNRthtMoz0u9GnaeNfifkuJfuHN4S5usTK+6egPTzjO/vuCyT4bTbBMq4nuMYXohEzai5ChAAulhBzUPJr5P0L0bmtvJI8aKdp1MIRIz2T3Rf849jeS5nAcbBc6WNp8adopMsZy91ms4BLIYc5xiZdZEmWQEUAIEOYKw9x/j+tW/u7+Mxja6RdV1RXAUASc0OwxdL+lvjmH8ujxT/oDxSTN2NCVKu3uje5h/H6utpnkeHlbN+DSsvo7Wcb+DByFK033L+P1P3IE9dYACLM0Hw++589VVx5wBWipGUYxUgABwpL+mlkm6V9M/l4eIflFO4RQkptX+ye5t/HCuXbTYEwcpwHGkTm6EShIMYE4oSOdBBjO/felkmc+9t9fqBuLMAKyHruJpXI+4YAKKxJ+4Ah3hqrqjLH/pvWu/iz5LRLZJ5e3mkuN1afWPrWIXqDNojCKT9B+NOkSy9PdJcNe4U3aGvIPXTfAU4GQqAQCextmh8f4ek98QdBVjEjGT+SLKRtQd0HSPHGAXdft5Q031xBwjhPZJ4w6I97o07QKtszR/Z+pOfJLJ7QPn0LXnrqGCsCpLyMuqTzHo1D0hfo2aX3tMkbZQ0pObZSUOKf7eNo+Y5gTuN0T3lkeK1VvbOraPjvHOCaM3MS9WFuFMky+FmIHUebm23ZQPNP5KFOlNC8Q8DdBgTBO+4LJP529vq9TvizgIcoybXvf03fvTQE3EHQULY4PbS2O7H444BnExp13hVUlUnKViXT9/syTF9khlQ8wykopqHof+apPPVLBDG5XxJ/2Bkbi8Pb3l/aWx8f4xZ0GkOTEq8F3e0w81AJqfjTtLZXFc6JU1HznWFfNwBsDgKgEDn8ZxG4wuXZrMv/kqtxot7AABWSGnX7oakiUMfeyQ9dOTfl4e3bJQxZ0p6maRXSRrWyh6W3ifpEhlzfnmk+EeywTdKY7vZFozlafjN7r94pr4eaXqWsxHbaf3qZhEQSRL36nccB/8wQCeytug0GrfEHQMAADytNDa+tzRa+U5ptLLN+P6LJT1PzWLg1ZLul7RSVYJNkv5WxvmH8siWDSt0TXSq/RNSwPK/RdEMpL0cIz3ntLhTAKlBARDoUCYILr3M814edw4AAPBMr6/8JCiNVh4vjVbuLo1WPl4arbxQVqereTbmDyTNtTmCJ+kiyfxbeaT4ijZfC50qCKR9HOV6QjSnaJ/+XmmAry+wVBQAgQ5mfP8Ll2YyA3Hn6GYTs7OOz7YPAMASlMYqu0ujlc/L2t+U1QskbZO0u82X3SDpv5dHih/5h2KRewO0ZmZeWkhk757k6O1pngeI6G0akgzNP4Cl4oc80MGMtWc4vv8XcefoZg/u/ql378OP6pE9j2lqbl6WbrUAgJMojY03SmOVR0ujletLo5Utam4V/qKaZwu2Q17SR62rfyqPFIfadA10op/tp/nHUvQV4k7QeTKeNLQ27hRAqlAABDqcCYI3XpbJnBd3jm7mB4H2TUzqP3bt1n/s2q2fH5xUQCEQALBEpdHKw6XRyrsk/Yqkj0tqV5OvV0r6fnm4ONym+dFJGr40NRt3inQo9EgOt96R2ngqX1OgRTxigPQIZEIdDu6YRuNLl2UzayJPhJZYazU1N6//9dPH9K///6Maf2KfZuarrAoEACxJabSytzRauVo2eI6kT6jZaThqz5XRD8sjW17ahrnRSZ6alHgNszT5bLMhCKLhGFb/ASFQAARSwjrOPwau93oZ0/L2H2Ptc03Dv7EduRBOveHrp/v260dj43pwbLf2TUyq4XNWIADg5Epju+dKo5Wr1FwReIOkmYgvMSSZfyqPFF8T8bzoFEEg/ZzmHy2hWUV0+nulfrZVA62iAAikhLFB9bZG41vWmE+HGh8Ev3eZ57066lxYHmutpufn9ciex3TfI6Oq/OznzqMHDvLcDAA4qdJoZao0WrnGWv2SpK9IqkY4fUHSV8sjxXdEOCc6xfSctLAQd4p0oRlIdJ5zGs0/kq0RdwAsjptMICWszIAk2Yx7i4y5J8wcju/fSlfg5Gr4vn765FPOj/c/xR4RAMCSbR2rPC4bvFVWvyHpxxFO3Sfps+WR4hURzolO8MRTNP8Io59VgMuW8aT1nGyUcGxrSigKgEBamGYB8LaF+gHrulfLqPV9F9YWHd+/OfJsAAAgVqWx3UFprHKftfaFkrZJmopo6qykz1AExC8s1Gn+EVZ/L40rluvZQ5LL1zDhKAAmFI8cIDVs/vCvvtxo/MAa5y/DzGKC4Iq3eN4ro8sFAACSYuvYeLU0WrleVm9SdKsBC5I+WR4pXhDRfEizfQdo/hGW59IMZDlcRzp1ddwpgNSiAAikhAmsd9ngqqcfs66zQ8bcF2Iqz/j+Zy/LZDZFlw4AACRJaazyjwqCl0j6oqRaBFMOStpZHtlyYQRzIa2CQDoQ1eLSLkUzkPBOWcM2amAZKAACaWGUD6ztO/zbL9cbB6zrXCMTYouPtcPG96+NNB8AAEiU0q7dM5LeL+kaRbMleI1kPlMe2fL8COZCGk3PSbV63CnSjWYg4Z26muYfwDJQAARSw2Tl+0c18GgUeu6wxvlUqNmC4C1v8dxXRZMNAAAkUWm0UrU2+FPJXiZpbwRTDkvmk+XhLUMRzIW0+TnbfyPBKrbWZTPSOrb/AstBARBIj6xp+IUj/+BrUzNBo693u4x5INR8fnDzZRlvY0T5AABAAm0d2x2URsdvl/QGSY9EMOUrZcxN5eEthZN/KjrGQl2anIk7RWegGUjrNq5n5SSwTDzrAGlhrUy95h37x1+bmq5Z171WUuuvyKw90/jB1W/u633GvAAAoLOURiv3Sva1kioRTHeJjLkignmQFk8eZPVfVDxX6snFnSI9XEdavybuFEDqUQAE0iNvZPoW+4svNxq3W9cNuxX43e589eLlRQMAAGlQGh1/VLL/p6R7ljmVp2Zn4PMjiIWkqzekA5Nxp+gsg/1xJ0iPU1azbRqIAAVAIC2MyVrHWbQAKEmB5+2QMQ+HmNkzQXDVm3PZ9ctIBwAAUqI0Oj4m2TdJenSZU2Ul3VweKa6LIBaSbHKmuQUY0cll2dK6VOvXSA7NP1KEOlNC8Q8DpIcn2eMWAL+ysDAXuO5bJc21PLO1Z7v1xrZLc1m2AgMA0AVKo+N7rbW/qeVvBz5P0tURREKSHZhk+2879LGq7aQ8V1pP84+U4Z4yoSgAAmlhrWcCe8In09sajQes43wuzPQmCN7tNBqvCRcOAACkzdax8b2SfkfS/mVO9Yfl4eIFyw6EZKrVpanZuFN0poECzUBO5tmnSi4rJVOGb+qE4h8GSBETBNmTfU6jr/dqG24rcNYE9guXZrNs4wEAoEuURiuPSHarwjQTe5onoy+Uh7dwSn8n+vkBKWD1X1t4Hs1ATsR1pCFuTVKoEXcALI4CIJAi1jEDJ/ucr01N16znXa5wXYHXOY3GRy8tFFi2DQBAlyiNjv9A0uXLnGZYxvx+FHmQIA1fOjgdd4rOtopmIMe1brXUV4g7BVpHATChKAACqbJ4F+Bj3Vav329d97pQVwiCdzsLCxeFGQsAANKpNFopS/r8Mqe5dudwcXMEcZAUB6ekhYW4U3S2PM1AFmWMNLSW5h/pVIs7ABZHARBIFZtf6mcGnvcpa0yYg709EwS3XprLDoYYCwAA0sraqyQ9tIwZssZo+87hzdxjdILANlf/sfu3/Vjl9ky9PdI6bkdSqhp3ACyOH85AmpykCciRvrKwULOu+waF6wq8wa03tr8ll2MrMAAAXaI0Nj4ha39X0sQypnmjMc6FUWVCjGbnpcnlHA2JJRvooxnIsYbWsjIyvbpkC7AN4k7QKp5lgBQxUkunBN/WaDxgXfdPWr1OVtJQEPze5iB4ZatjAQBAepXGxvdI9splTOFJCnUMCRJmYlqyLP9bEZ5LM5AjOY50yuq4U3S71heRPG1PZCnaL2wRr2Fl9keaZAWwugdIEWvMQKsvxBp9he3e1MylxtrhE32eK6kgaVBST/OPsoHvf+Ga3t5f3T47eyBcYgAAkDqBviJHl0t6acgZzi2PFM8vjVbuiTIWVlDDbxYAu9UfXvK8uCO05N1Xnafe9f8j7hjL5tfepU9f/cW4Y0BSEHxHxrlWRi/U0upGhxeXPWqtPtrGZFG7SdKApD41i57Hrl48skDoSMof+rNbto5VUnePTAEQSJeWDwj52uR07bKM93ZTb3xXzSeso+TULPr1qVkEPJITBBszCwu3/qf1p7z1T/Y9mbolzgAAoHWlXeNz5ZHiOyX9TzU3BoSxfefpW35r667xLtkK1mEOTktVmn8A3aq0a3dD0sfiztFupdHKt79e3PKPxlgvUNCwC81b3jfu3bvove/fFTd7xhi9IaU/2ygAAumy5CYgR7qt3rj7La77p8b3PyQ1H/g9klYvYUK30bikd2LyNknfDnNtAACQPqXRyqPlkeJ1Cr+d96XGMRdI+l50qbAiAisdmKT5B9AFyiNFR9IZks6S9CuSzlFzbUiXMXLl/GIrXHmkeMLPXuTv5yTdJ+l/qdlM69HSaCVx3ZApAAIpYuzSm4Acy/fcHT1B8JpV1p7Vp5beznecRuOTH1o1cM8Nk1PLORQcAACky19KerOkM0OM9SR9UBQA02euKk0v5/gvAElXHil6kl4l6U2SXqeuLPpF7lWH/jsn6XvlkeJXJX27NFqZijHTUWgCAqTJMgqAX12ozTwrm33namPmWt3L4wTBGdnZuVuuHlzFmwYAAHSJ0mjlcS2voceryiPFTVHlwQo5MCkFnPwCdKrySPEcST+U9N8kvUUU/6JWkHSRpK9K+vfySPGVhwqusaMACKSJMYVLBleFPYtHk+tPeSBw3c+FGev6jUsy89WLwl4bAACkjwnsNyQ9uowp3hVVFqyAhi9NzsSdAkCblEeKb5H0T5LOiztLlxiW9A+SPlQeKbZ8nn/UKAACKWKN6TNBELoA+Omf7g0Weno+GjjOA61fXFmvXr/lmr7eNWGvDwAA0uX1u8araq4CDLsk7IrySJHXDmkxMS1VE3dsFbqBY6RVA6lsrJAG5ZGiUx4pfkjSZyWtiztPl+mTtE3STeWRYqyrLSkAAumSt0GwrOXDO6anp/xM5gPWmJbP8zNBsDFTXdj+n05Zx3MHAADd43ZJ94Ycu1HShRFmQbss1A41/6D7B2LQ2yP96i+x97x9LpX0UbHdNy6epHdL2lYeKYZe0LNc3MQD6ZJ1Gv6yH7e1fO6ewHNvCjPW9f0reqemSsvNAAAA0qE0WpmQ9BfLmOK9UWVB+/i79niaovkHYnLqWqkv9h2SHak8UjxP0o2iCWzcPEl/KCm2e2kKgECaWOvIX34B8OOTU0G1UPh04DoPhciQd2v1Wz40MDC03Bx4JseYYENfL9sfAADJYu03JB0IOfr88kixGGUcRM9/8qkszT8QC9eRnn1q3Ck6UnmkOKDmMQ4b4s4CSVJe0jXlkeL6OC5OARBIiV5JG6x1Nvt+JPN9fHJqxve8P7LGtPxWr7F2Q3ZuNtQKQpzYqt5C8OLThigAAgASpTQ2PiXpiyGHe5LeHmEcAJ1k7aCUzcSdolO9XNIFcYfAUc6UdEkcF6YACCRYTs0TWjdLepakPsfkMxkvsjMDJodOvTPwvO0KcbC36/tv/Egue3FUWSAZSVuG1ssYE3cUAAAW89cKvwrw1eXTt7D9DMDRHCNtYXFaG71VbP1NGkfS5XE0yKIACCRQr5prtDdKWiPpcMXPGqfgu15kT+C3/OSnQa2n588Cx7mn5cFWWa/e+OSV69YORJWn2/X19Ki/0BN3DAAAFmfto5LuCDn6DDmGu3wARyv0SAO9cafoSOWR4pCkF8WdA4s6W9JzV/qiFACBhPAkrZa0RYdW+0lyn/lpeZlo38G5YWpqys9ktlljqq2ONUGwsXdi8jNXrlvLc0kEThmklgoASK7S2HhD0jcVYueApD7JvjriSADS7tQ1ksOtRJucq+aaEiSPo+a/z4pfFECMetUs+D1H0imSTnL6RVY2+sdtPZ//QeB5fxJmrNtovLEwNf22qDN1m1wmo3WrKAACABLO6nZJY+EGmzdHmgVAurmOtIm+gm1UFNt/k+xXVvqCFACBGG3MZvUsNYuAi6z2W4wnG0T+uN0xORksFAo3Bo5zd4jhWbdR3/7Hq6leLcfq/l7lOfwYAJBwpbHKhMJvAz5v5/DmfJR5AKTYKatp/tFeg3EHwAmt+LEYFACBGLXc6sFaxwS2LY/bHZOTM/WenvdbY2qtjjWB3ZCfnr25Hbm6xWlrV8cdAQCApfp+yHFZI/PKSJMASCdjpGez+g9dLbLmnktFARBIESM5ThD9CsDDrp+dfTBw3U8oXFfgt12bzV4RfarON1DoUX8PzT8AAKlxr6THQ4005nejjQIglfoL0mB/3Ck6XcsLO7Ci9q/0BSkAAmlirWNsmHO3l67a13tz4DgPtDzQ2qzbaFx75bo1hTbE6minrV3xDvAAAIRng72SwhwbIknnlIeLnEkFdLtnnyo5Le+HQmv2xB0AJ/ToSl+QAiCQMiawbZ3/4xOTEwu9hbdaY+ZaHWuCYHPvxNQX/tO6NbywX6JcJqO1A7z7CQBIj9LY7kDSd0MOL8ro+VHmAZAyriOdti7uFN3gQcWwygxL9u8rfUEKgECKGGtlbHsLgJJ0w/TMI4Hrfi7MWNf3S4WpmVLUmTrVYF+vPJenYgBA6twv6UCIcWskCoBAV1s3KLlLbIGI5Xjk0AeS53E1C7QrirtOIGVWogAoSQu9vdcFjnNfywOtzXuNxo5tPT3FNsTqKEbSs9ax/RcAkD5OYH8saXfI4b8aYRQAaWKM9JwVb37alUqjlUDSzrhzYFHl0mhlxbdoUwAEUsa6zoo8bndMTk7Ue/LvCdcVOCh6tdq2duTqJH2FHvX15OOOAQBAy163a7yh5irAMM6KMguAFOkrSKv64k7RTb4uqRJ3CBxlv6QvxHFhCoBAylizMgVASbp+du5BP+NdpxBdgU0QXPKRXO6SNsTqGKz+AwCk3PdDjmMLMNCtnjNE848VVBqt7JW0XXQETpLPl0YrD8VxYQqAQNoYs6KP20Y28ynrOC0/QRlr8169vm1bT8+mduRKu2zG05p+3v0EAKSYtT8IOXJDeXgz74IB3cZxpPU89GPwZUl/F3cISJLulXRrXBenAAjghLbPzM0s5HPvCtkV+Ey3Xv/klWvpCnysoTWr5XH4MQAgxUpj449LCneGkXHOizYNgMRbv1rKcFuw0kqjlZqkt0v6XtxZutyDki4rjVaeiCsABUAAJ7V9bv7+wHM/FWas22iUemZmXh11prQ7dfWquCMAABCFh0OOOzvSFACSzRjp2UNxp+hapdFKQ9Llkr4Rd5Yu9YCky0ujlVjPY6QACGBJavn8jYHr3B1mrFdvbN/Wk98ccaTU6i/0qCebjTsGAABRCFsA/OVIUwBItn6af8StNFp5XM0i4DY1G1Gg/WYk/Zmk18d17t+RKAACWJIbpmem6rn8exWuK/Dz3XpjRztypdGGtZx9AgDoGKMhxw1HmgJAsj17SHIpP8StNFqZKo1Wrpf025L+RtJUzJE6VU1SWdKbSqOV95dGK+GOy4gYj0AAS3b93NyPfc/7XJixbqPxxm253EVRZ0qbrOdpzQDvfgIAOsZuhesuua58+hZ+IALdwHWkU3kDPElKo5X71TwX8MWSrpZ0p6RGnJk6QFXSPZKulfTrkt5cGq18O95IR+METnQ8z3GUcR2K3RFp5DLXmCA41/H981sc6mTq9S98uCf/0PXz1d3tyJYGQ2sGlaH5BwCgU1g9KqP9kja0OHJAjtmk8FuIAaTFs4do/pFApdFKIOkRSR8/9IEOR1EEHSvruhrIZjWQy6qQycQdp2NcPzM3U89l32eNCVoda4Jgvdvwt7UjV1qcunow7ggAAETI7pE0EWLggCQ6AgCdzhhW/wEJQRkeHcVzHOVcV1nXkWNM3HE61vVz8w9em8n8kVev39LqWK9ef8dH8rl//lh14SvtyJZkA4Ue9eRo/gEA6BylsfFGeaT4uKQzWxyal7SpDZEAJEl/rzTQG3cKLKI8UiypuVW1Kmlax98CHBz6CMPR0heehb3G8cYf79pR//84R3z0S/Jk9Q+lsco9Ia/RNhQA0RGyrqu868pzHFH3WxmNXO6vHN9/pxMEZ7U61qvVbrqmt7ZnFoUAACAASURBVHDn9tm5x9uRLalOW7s67ggAALTDEyHHsQIQ6HTPXi9xGlPi7Bzesl7Sf5VUiDtLRzJ6jRLY7Z5HIlLLMUaFjKfV+Zz6sxllXIp/K2n7zMxUvSd/ebiuwHZDprrwF+3IlVS5jKe1A/1xxwAAoB32hhx3SqQpACSL60hD6+JOgUUYmWFR/GunM+IOsBgKgEidrOtqIJfVYC6nHs9jq2+Mrp+de7CR8a4NM9b1/dd8JJftmq7A61cPyqP5BwCgM42GHMfBYEAn23iq5PH6N5GM8nFH6HDOlzZvTly9LXGBgMU8Y7UfW30To57P/Vngut8JM9arN/7imt5Cq10DU8dIOm0NzT8AAJ3K7gk5cF359CJHEgGdyHGk01j9ByQJBUAkWsZx1JfNaDCXZbVfQt0wNTPTyGauUbiuwEOZhdon25ErSQb7+5TP0vwDANCxwp7pu4ZVKEAEkniPtGZA6meHKZAkFACROEeu9hvIZZVzXZll/lCrBwHf62103Xz1/obnXR1mrNtovHFbPt/RW4GftZYdTgCADhaYsCsA18hwBhWwXNmh9VLSjprZcArNP4CE4RGJxMg4jvqzmbac7bf750/yvd5m9Xzu84Hr/CDM2MzCwq3X9PV25B6Bvp68Bnp74o4BAEDblHZVZiRVQwztk8QSeWC5HCP1JaiW7jrSOo6/AZKGMzcQK9cYZRxH+Ywnt01L1+cXatp3cLItc+NpN0zPTGzryV+VrVbvkm3txbyxdlOmuvAZSW9qU7zYnPGs0wKaf/xCXrKX3PWCX5mKO8hyTM3PB3W/5R3vUbu3NFp5JO4Qy2acN5ZHihNxx+gA95dGKz+OOwS63oSkoRbHUAAEojLQK03NSNbGnUR61nopQ6kBSBoelYhFxnGU81xlXVftPrHiZwcOquH7bb4KJOm6+eq912Yyn/Dq9Q+3OtZtNN64LZf7b9ctLHy5HdniMpDLNRTw/XdIQb6f+jMfPeOortgLgO+TlP4CoJT674eEuFISBUDEbSbEmIK4HwGikfGknpw0F2YxboQc09z+CyBx2BaJFeMao7znavDIs/3afM3AWlb/rbBGNnNz4Lp3hxmbqdd3XFMotLp6AFhRea/9z10AkEJzIcZkJZqAAJFZ1R93AmntIM0/gISiAIi2yziOejOeBnJZ9WYybdvqu5j9k1OqNRordj1I22fnJnzPu8Yac6DVsSYINmZqte3tyAVExTFGHodaA8CxwhQAJUsTECAy+Wzz/L24GCOtX0PzDyCheGSiLZxjVvvlI27qsRRW0s+eOrii10TTxxYWfhC47s1hxrqNxju25XOXRJ0JiFLO41xHADhGmC3AkmEFIBAZY6T+3viu39sjDa2J7/oATogCICLjHGro0ZvJaFUMq/2OVa3VNDMf8xkYXayRy30+cJx7w4zN1OrbP1zoGY46ExCVrOPE+vwGAAkU9kUX9yNAlPp7m+fwxWHdoORxrCeQVPzARWRWrxpwBvI5J++5K77abzGP7z8oP4j9oP6udf3s7P5GLvcBa8z+VseaICh6C7VQKwiBlWCMYRUgABwt7IsuqgVAlDKe1BPDwlrXkYbWrvx1ASwZBUB0pMBaPTlJ84+4XTc/f5+f8UJ1+XSD4DXbcrlS1JmAqKxEIyMASJGwhy5TAASiNhDDNuA1q6Q+jvQEkowCIDrSkxNTqtVp/pEEtULvnwaOc0/LA611MvX6jR/uyZ/RhljAsjnGKBPnQdsAkCwUAIGkyOeaKwFXijHN1X+8LgISjUcoOo61Vj8/OBF3DByyY2Ki6mcyV4XsCjzs1erXfaiftxORTFmXbcBAVGzcAbBcYQuA3I8AUTNGGuhbuev15qVTVi97GkP34JVjQz9nx6Eh6aG4Q7Tq7bt3J+48Mh5h6DhTc/OanpuPOwaO8LGFhbt9z/18mLGu75cy1YXXRZ0JiALNQIDo8EjqWom7QQI6QiHfLASuhHWD4VccGkm5jNTfK7ef9/xXjk3Tc++3rNXfxx2iRYn8+lIARMfZNzFJ848EOrjpOdsC1707xFDP9RvXfbiHrsBIHmMMqwABoCkbclyaVqEA6bFSzUBcRxpa1/q4jNcsUq7qlwo9kudKrADEM+23su8xRr8cd5BOwJkb6ChW0lNT03HHwCI+vWtX48M9Pe/LVqs/NNYOtDLWBLbo1WrX/OfBwfd8YmKi1q6MaLsZyXxQsi1vB0+yjOtofuVvXx9c8Su2x3skddT3Q0xSty0GHSnsfQUFQKBdVvVK7d4ZtXpAamXlXi4rZTPNwiG7KHByN8qaqozOiztIJ6AAiI7y5MFJmn8k2PXz8w9dm8n8uVev/3GrY90geFvP7Ox3JX2lDdGwMmpy3W/9xo8eeiLuIEgIG9xeGtv9eNwxAEQi7NIdtm0A7ZLPN1fWNfz2zH+4+cfJVu65ztOFP4p+WLqHZe3njDHPl7Qp7jCdgDW26BhW0hM0/0i8WqHw0cB1H2h5oLWO6/vXfqivjyd/AACSJ+TCAss7t0C7GDW32LZLIS+tX3Oca5tfnO2n/t5mAZDiX5Kk4M0Xe3VpbHxG0juVvsVriay1JTIUEMbU7BzNP1Jgx+RktZHNXm6NmWp1rAmCM7Lz89ddNTgY9pwhAADQHiEPGzPVaGMAOEo7m4GsX/PM5h+u0zx7cFXf02f7UfhLHCuT9DdffuAHwe1fP32zI+k1cYcJ40ubNyeu3pa4QEBY+yenaP6REtfNz//Y97wdYca6vn9pfm4ulT8EAADoYGHbd85FmgLA0TKelM9FP68x0qZTD/360HX6Cs3VfnlW+2FZAkkffcOunwTGmOdKGoo7UKegAIiOUK3V9OREywvKEKP9mzZ9InCc1rcCS55br3/pQ729GyIPBQAAwgpTAKwe+gDQToNt2Aa8blDq7WmuMBzobxb/Mh6FP0ThdmvtnZJkjLk85iwdJW37qIFFHZyZVa2R9FXMONJndu0KPlzoeU92vnqXsbalmwZj7UB2obrtqsFV779xYpJ/eAAA4hemADinkF2Ay8PFi2R0VZixcenJZJxCNhPZAoyfHZx0Htn7eD5w3YfnB/rfddP+p3g3HIvL56JrBmJMc4vvyKbmaj8KfohWYGWv3jo2Huwc2VKQVIo7UCehAIjUs9Zq38HJuGMghOvn5u//SC57VWahdmurY10/eHd+bv5fJH25DdEAAEBr+kKMmZNUC3U1oyFJ54caG5Oa31BP4CqKcklgrQ4cnJDr+zJSwwQB93U4PqPmKsD9y2iYmPGkgb7mSr++HulZp1D8SzEj6ymSZ6PIfWrr6PjDzV+aF0kqxpqmw7AFGKk3NTevmXl2j6RVLd/zucB1Hml5oLWO22jc8qGB/vVtiAUAAFozGGLMjMIWAFPID6zqfgQrsCTNVRd0cGY2krnQJXryzQYdrTi82u+0U6SNpzYbe7hOs5jouu3JiRVikvimwX4rfeHwb4x0uahZRYovJlLvSZp/pNrHJycbjUz2cmvMTKtjTRCsyc3OffbqVQN0BQYAICY7T9/cp3BdgCdkbVe9i7vgR/Oa9cmJKQW8/kUrMl7zzL6lfu5gv7RpSDptndSTe3q1n2OkU9e0Lye62Z9vHa0cuTDkgpN8fqDmG0n7JO2V9Kik3Yf+PG7B23fvTkKOo1AARKpVa3Xtn+S4k7S7rlq9z/e868KMdXz/ddn56kVRZwIAAEtkzMaQI/fLdlcX4Lrvyw/ssubwg0CPP3UgokToKr0nOKrTmGZDj8Or/dasWnyV30CflM20LyNWhDWJa8A0Za2OPRZq/xG/3ifpfknfkfRXkj4oq5dI+mVZPc9a+7wgCJ4XBPYFahYC45bI1e1JXPYJLNmB6WnV6vSA6AT7N2360/W7d7/e8f3zWhzquI3GZ6/p7b17++zsE20JBwAAjsssowBY2jXeVS/krKQF31fBCX8b9tTUNLtfEE5PTvI86XDzRKPm73t7moU97yTbeo2Rhta2PSZWgLX7E3aG49VbxypHFvwUBPZlxtFzrdXui8fGl3SAZXm4uF7hjqSIWiLf3GIFIFLLWulnTx2MOwYi8plduxoNz/uAjGn5ydIEwbrMwsJNV69axZsaAACsvA0hx3XlMrZ6ECjsGkBrrZ6amo40D7rMQO/Tq/3WrZY2rG+u9jtZ8U+ScplmAxCkXmDtvrgzHOHHksrH/uHFu8arW0fHH1xq8U+SZHSZpKEIs4WVyG2KFACRWpOzs5qtLsQdAxG6bmHhvnomsz3MWLfReEt2fv6KiCMBAICT+6WQ456MNEVKNIIgdDOQmWpVT021fGwy0OS5zTP9nnOaNLRO6u9trTHImlWSQwmhE7xh1+4ZJWOVWkPSzaXRypJ2cu0c3pIvj2wZ2jmy5Rmd53cOF4clvTvqgCHtP/mnrDxWyyC1ePezM9V6ej7l+v5rHd9/Uatj3Xp9x4f6+751w/RMkt7RAgCg04VdbdG1P68X/EDZEF1U909O0/wDrTGmuXIvn5PymWYBzxhprsUj4IyRTlndnoyIy+OShmPOULHWfuPYP/z7LZscx3WHDh0xcaakEUmb1FxxvtlIY18/fcvvXHzEMRLG6HVKxuo/qdmUJHEoACKVms0/KAB2oo9PTs59JJf7gAmCbxpr17cy1li7LjtfvfnqVQPv3DE5lciDVwEA6EBhzgCsKaE3SCuhHgRqBFaes/QzuBp+oCcOcPwNlshzpXy2WfjLuDrqvLeenDS/0DxTaalW9TULiegkDyn+AuCAMXp1eaR4QM2fJVvULPgV1TzLb1DSwCLjipL6JE1IUnmkuE7SW1ck8dLcFXeAxVAARCodmJ7RQr0edwy0yccWFu79fzOZG916/eZWx7qNxiWZ+ep3Jf1NG6IBAIAjfL1YdBRuxcWUmqtPupK1VrXAl9dCM5CnpqZVb4TbOowuYSTlsk8X/o5XYM56UsaTaku8nzJGOnVNZDGRGN+VVIo5w5Bkbgsx7vGLdx11NuClkp4fUablaki6M+4Qi2EDP1LHWqvHn+rKM6O7ykKh5/OB694bYqjn1es3XVMoxP1uFgAAHc+4doOkMJWBKWtt164AlKSFhr/kBVgBr39xAiZ7qDnH2lXS6v5mg48TrS41RurJLv0CPTmpv7D8oEgU2yxStbgXPDHuP/yL8khxg6T3KDn1rSes1e64QywmKV8gYMmm5uY1R/OPjrdjcmrGz3gfsMa0fICqsXZ9dmHhlj+mKzAAAG1lZIYVrgB4YGsrnR07UGCt6sHSVvTNVhc0M5/W+3S0m7dqwNFAr5TNHL3V90Ry2aU39DhlNc0/OlGzSDUWd4yQ/vsRv36dmtuGk+LBrWOVRP5841GMyLRwgsSy7J9MZEdttEE9l78/8Lxbwox1fP/CTLX6uqgzAQCAo2yWFGZp0O5oY6RTzV9aQ4+nJqdlWzmvDTiZw2cEnowxzZWF6DhbxypVSV+NO0cIVR3aYlse2ZyVdFWsaZ7pm3EHOB4KgEvH1+qkrNTmr1O1VtOTFAC7xo7JyWChUPiTwHW/HWK4l6nVPvuhvt5i5MEAAMBhIyHHPRppipSq+b4awYkLew0/YPsv2qMnd/IVg4N9zWIhOpKVviwpba3Fd1trdzd/6VyqZnfgpNgfBPbLcYc4HopaS8dWwpNr+/fTwelZ1eqNk38iOsaOycmq77nbrTEzrY411q7LzVdvet/pp/NcBwBAe4Q9c/dHkaZIKSupdpJtwAemp9Xwaf6BNjjcDORE1tP8o5NtHa3sUbMbcJo8vHVsvLZzpDgg6e1xhznGty7eNZ7Y8xq4KV4655ubNvL1OgFjraM2FkqtpMd497MrfWyhdk/gujsU4t0px/cvWrt3L1uBAQBoj3BdF63uizhHalUb/nGP0rHW6rEnef2LNjGmuQrwePI0/+gKVqHus2L0Q0ky0islvTzmLEeak9VNcYc4EQpaS2CMlPdc9W7ZMhB3lkTzG56aRcC2mJqdo/lHF1voLXw6cJw7Qwz1vFrts1evWrU+6kwAAHSznSObC5LOCDF0ojRW2RN1nrSy1qp+nBV+M/NVzVQTu5gEnaCQO36Dj1PX0PyjGxh9S2laBWjtt3YWi46ka+OOcoyvyST7eAsezSfgOo4KGU+r83n1ZjJyHYcC4AlYxy2ojd9Tj+1/ql1TIwV2TE7N+NnMtpBbgdfnZmb+4mq6AgMAEBljzfkKt/vjkaizpN3xmoHs3X+A5h9oL2MWbwbi0PyjW5RGK1XZxDXSOJ59pbHxinF1kaSz4g5zhJq19trSaCXRKykpAC4i6zoayGW1KpdVj+fp8LGoZn6WAxBOxPPatsJqoV7XxMxsu6ZHStRz+XsD1/10mLGu7786Oz//tqgzAQDQtYw5P+TIH0eaowPUfF/+MYW+ILA6MDUdUyJ0lXz2mc1A1g7S/KOLWGO/J+n+uHMswaPlkS0FJW/1319tHRvfG3eIk0liATCWDg+uMerLZLQmn1N/NquM4+jYfkhmYWFdHNlSo9FoWwHwqalpNY7zzuiSWFuLLg3ismNyMpjv670ucN07QgzPuo36jX+8epDHMQAA0XhZyHE0ADmGlbTQOHob8JOTk/KDRC8mQafIZ49uBmIknTIYWxysvK2j44FkL5OU9ENHx2T1Dklnxx3kCD+WdGXcIZaiqwuARkes9svnlPNcmRO0Qbeuu2GlsqWRsbZtX5+fPXVwWeNtTIVlRO/GiclqLZ9/nzWm5QNxTGDX9UxN3/KHK9gV2Mjyyh0A0HHKw1uGFO78vzlZVgAupuo/3QzEWqvHl/n6F2jJkc1AclmpkI8vC2JRGh1/VNI1cec4ifNkzI64QxyhIav3lEYrU3EHWYquLAC6jlGP52nwBKv9FmMajU3tzpZyW9ox6eTsnGaX2fzDug4FwA6yfXb2kcB1/1ThugJfvHrPniuiT3UclgIgAKADGfMiSWHe/H1CbAFe1JHNQGbmq5qZp/kHVlAh3zz3T5LW0/yjW5VGK5+T9LW4c5zAcyX1xR3ikEDSVaWxyj1xB1mqJD6q27ZV8+mz/XIqZDw5J1jttzhzWluCdYogaEuB9LH9y1+FHDguBcAOM9/XtyNwnHtDDM26vr/9I/n8cyMPtTi+9wAAneglCtcA5MelsUrSt5jFZv7QNuDHaP6BlWYk9RwqAq5j+293s++T9EDcKVLga1b2z+IO0YokFgBb7vB5Iq5prvZb3eJqv0XZYGOU2TpQ5FuAq7W6Ds5E8C0RYrsoku3GiYmZhULhvaG6AgfBkFuvX/vHgyvQFZgVgACADrNzuDgg6eUhh98VZZZO4weBqvWGnqL5B+LQm5dOWU3zjy5XGh0/IOm3Rcf2E/m2ZN++dXQ8Vb0GklgAXPZPu+bZfu4vzvYLt9pvURQATyzyFYBPHDgofznNPw4x1j4eQRwkzA0zMw81MpltYcY6vn9xbm7+iogjLYYCIACgoxijMyS9KNRga8vRpuksVlLlyf00/0A8PFcaWht3CiRAabSyz1r7WkkPx50lge6zVm8tpaz4JyWzABj68ETXGPVkDp/tl1near/Frbvz/BcPRTtlZ/j+S1+yRtZGulbcWqufH5yMZi7psUgmQuIsFHr+PHCcu0MM9dxG49ptPfkzIw91JGN4BQ8A6DQXKNz237HS2PjuaKN0lsBaPTI9w7uHiEcuK/X3xp0CCbF1bPxRWfvbkh6KO0tCBJK+YwP7W1tTepRF6guAhzv59mUzzbP9vMhW+y1mjalWi+2aPM3M/FzkX5fp+aoW6vVI5mpks09EMhES58aJyVo9l/1guK7AwUavVt/xgeLm9j0Xtu/5CACAuPxGyHFh3rDrKlO1miZqdc3FHQTdaVWflM3w+hW/UBob3yPp9ZLuiDtLAvyVpDdv3TWeio6/i0liAfAJ6eQ/81zHOXS2X1792axyrtv+5ylr+xT4z2/zVVLJBMG5Uc/50337I5srNz8/FtlkSJzr56v3+ZnMNQrXFfiiwb2PXRF9qiYrVgACADpHeaR4lqTzQwwNJH0p4jgdZ/TgpAJrdUDN7cDAinGMNNjXXGGT4QxAPK00WqlI9rclfUJLqNV0oP2S/qg0WnlnaTSdK/8OS2IBcL+O8011+Gy/5mq/rAoZL443J5634ldMA6v/I8rpqrW6JmejeW6xxtTquWzq9uejNfVc9nOB6/4gzFi34V+zrSc/HHUmSTJsAQYAdJZXSVoTYtwTYhvZCdX8QE8cev27IIkXr1hRA32Se6jwl/EU9VlaSLfS6HhNNrhG0jslddPimntl9frSaOVTcQeJQuIKgFZ2n47pBHy4k+9ALqu+bKa52i+mfLL2nDtffG5fXJdPojtffG5BNtoVgD8/OKGG70c13ZR1nImoJkMy3TA9M1fPZt8Xsitw0a3Xb2pLV2DDMT4AgM5QHikOSHptyOH3lUYrvB47gd1TU2ocav5hJfHFwooxprn99zDHaX4ARyiN7W6URitfk/Sbkr6ozn6a2iPpWkmvL41VOub4iuhvdpfJs/5+33gTzZXHjrKuq6yzAtt7l+5s06hvFC2xn9ZobJK1kXVIttbqiQMRPpcYc2BmzeoJzcxGNycS6fr5+YevzWRu9Or161od6zb812Xnq++Q9PkoM1ljGsl5+gIAYFnOVdjuv9I3owwiqwdl9CeRzhmzn89Xs3KerrrMSFrnnrwKEzjuT6zjtHwWMvALhbyUzx39ZxlP8lmHimcqjVb2SHpXeaT415K2SXqFElhbCmlO0t9J2l4arXTcSsfE/SO9dmxP8I9nnrEn4zhnu9F38V0+a/tsYM8WBcCn2eBCSdmopntqeiay5h+SFDhO5ZY9exuRTYhEq+dyn3KC4LWO77e8KtWr1a77WF/fP35kZmZPZIGMw/ceAKBTXK5w9w9TsvbrUQYpjVXuk3RflHMmUrCUjQQNaWGh7VHQwfoLzTMAj+R5kqlLltMosbjSaOXu8nBxq6QLZHS1wp0PmxQNSV+XdItkHyiNjndk9TtxBUBJ6slmdy/th108jA1+S9LX4s6RFMYP3hzlfD/bH+25mtZxHoh0QiTaDTMzMx8uFC7Lzs//m7F2oJWxOddd/4JNz7r5jo3PetMrvnNHNE9CxnTkDw8AQHcpjxSLkt4SdnhpbLzlIzoArADHSAO9z/zzw81AaryXjeMrjVVmJN0u6fbySPFcSW+QdKGks2MNtjQNNd9I+qakcieu+DtWMjf2GzMed4QTsvb8O3/9xYNxx0iC77/khUOywTlRzbdQr2t6fj6q6SRJ1uhHkU6IxLt+bu5R3/OubXXc2lX9ynluyd2//3WRhaEACADoDCWFu3doSPpCxFkAROXI5h/HyiRyvRASqjRaub80WrnKNs8I/C1J10t6OOZYxwrULPpdKellVvrt0mjlE91Q/JMSugJQxiTtm+Ro1g6bublXSCrHHSVuznz19xTh9t8nDkyo4Ue7+rOezT6kBWow3abWk/+8EwRvdXx/yQXqDWvXSJIj3//MXb/2q/f+xr//x+MRROFMHgBAqpVHiuslvT3k8EettezGAJLI6OjmH8dynGZxMLrmjOgCW0crByR979DHtvLwlvUy5vmShiX9kqTnHvp1Qc2alKfoFqcFar7xVFPzKNUfq9m1eJekR6y1D23t4hXpiSwAWmMqxpgptbh9bwV5svYNd77s/G9d8MN7unZN9J2/fl5WM9Nbo5wz0uYfkgLXnZpdu3ZM0137GO9aO6am5z5c6Hlrdr76H8bakz7XrerrVe/hw4+tHZIf7FDzrKNlslSfAQBp90ZJZ4Yce+vWsXHeDMPKMEYmn0vmLrckKvQ8s/nHsbKeNE8BEOGVxsb3Sbrj0IckaefwFs9IBck0C4DGSjLOck6cNLKBrJGkhpWtWZm5i8cqyT1bLgbJfHL0vH1KepMNay8yszNnxR0jTqY6f66sfX5U8z05ORVp8w9JssZ879O7f8KDvktdPzf/sO95Vy7lczesXX30HwT+2+4656xlbwU2QcBNDwAgtcrDxT5JLR+rccicDeyXo8wDPIORlM1Ig/3S0Bo5g/1xJ0qPgd5nNv84ludKJnGtOZF6piBjCjLyrNSwVlVrNSNr58J9aMZaVa2xNRk5kukzUj7u/8ukSeQKwAv+9d+n7jr7+Q/K2hfFneW4rC0osO+V9K64o8TG9z+qCL+Hol79d8hd7ZgU6VHP5b7oBMFlJ+oK3JvPabC38My/8P3P3PnCF9x/wb/9aG/oAL5PARAAkF5GV0haF3L017bu6t6tVmgzx5EKeakne6hjbdyBUiabaXb/XQqagSBC5ZHihZL+i5pbgANj1JDMoW+w5TyQjdRc5OYZI0/SgfJI8XdKo5VHl5e4cyRzBaAkGfOvcUc4qcB/x53nvuCMuGPE4a5zz36FguCVUc03NTunqbm5qKb7hcB174t8UqTKDTMzM7V8/nJ7gmYc61YNKOMtUsu2doOp15d3cLnv82oJAJBK5ZHiJkkfDDl8TtJNEcYBDq3286TV/dKpq6WBQrNRBcW/1vX1HL/5x7FoBoJovUzSRklr1HyDaejQ76P42CBp/aG5hyVF1rC0EyS3AOi6D8iYA3HHOAnHNOrvu/Nlv57cr2MbfP8lL8qqXt8W5Zz7p6blR9z8wxqzz894XdHNBye2fXb2YT/jffR4f79u1Qm2igTBq+4656xXhb644wRqHkbb9awkP+BLAQAp8l5Jm0OOvUOyrLpANIyRCjlp7armR0+ObanL1d+79M91HMntqltetNfPVvBaT6zgtRIvsY9iu3r1Q5KS/6IhCH5fs1MXxh1jJTnV+f9b1r48qvmstXpyYiqq6X4hcN27t8/M7o98YqTSQr7nU77r3n7snw/29ao3f5LjIXz/r+/6tbM3hbmudZxAxnR11aseBJqu1XVwvqqJ2ehX+gIAolce3nKWpP8ccnggaz9YGh3v6p9/WKajVvutaZ7xl81QISaWUwAAIABJREFU+ItC7xKafxwrm2lPFnSjPSt1IWvtil0rDRJbALzgu98P5Dh3x51jCbLGD26988XnnqB/eue488XnDikIrlSE3ztPTc1E3vxDkgLH+fvIJ0VqfXxqaq6RzW6zxxTjTluz+nhDnmbtevmNT4a5rjHduQLQSlrwfU0u1DS1UFPN97Wcrl4AgJVTHi7mZcxnFP713p2lsfHkv5GPZDKmucJv3WDzoyd38kYVaE3/Epp/HItmIIiK1eMrdKVAlhWAR0psAVCS5HpfjTvCklg7bBaqt9z5onOycUdpp7teeM6Aqc7/tawNexD0M1hJTxw4GNV0T89rTKOey94Z+cRItevn5x/0Pe8X29cL+ZwG+5Z4+HEQlO4656y3tXpNa9SQ1BXnAFpJjSDQbL2hg9UFzdTqavxv9u4+Tqryvv//65pdVtwQQiihlC8PgluwqVEDiApDIhiNzCYxsYtRc39jEpMmxqbWr7V+8/BnjaXWWENuam40MeZGY3SbGxsOxigYOSAiEmMtlc1CKKWUIMF1XZbZmXP9/rh2ZfbM2WVn5sztvp+Pxz50zpm5zsXuzJnrfM51fT5a8isiUo8uAd5Y5Gv7gWti7IuMB8a4PHOvbIUZU92sP+WdK49Cin/kvVZ/EymddSs9K3F99PTK3+7U8qMcNR0AXLblqa0Y013tfoxJEHzIZDIfqXY3ymXdmYtaGEjfhLWxFf4AeLHvcLmKf/x41Yu9ivZLnoHjjvtS0NT0IMBrRir+MZJsdtW60xfOKOyIpuEDgNbawdl+R3jhSJr+TAZrNd9PRKQe3T/3hFkYvlxCE/eC3RJbh6SxDeX2m/YqeM0UF5jSLLPymtTqZvMVo5Bxs8gIVnZ19wLPVOBQ6ypwjLpS0wFAAIz5ebW7MEYJMpnb1i849aJHFp9W+7/XAqxffFqzOdL/twTBJ4j5PfP7Qz1kYi7+AWATie/E3qg0hH/o7e3NTJhw9YQJE/ZNe9Xkwl5s7UwzkP7qI285Z+yfgyCbwdqGCwAGmQwD2cHZfkfcbL9soKCfiEg965zXNskY832g2NQ2h7Bco9x/MqqXZ/u94mhuP832qwxjYGqB499cCTP2ysEio6vEjaL/rMAx6krNB6psIrEGt5SgPgTZOxJH0u+rdjfism7x6S0cSf8VQXB13G1b4PmeF+NuliCR2J5pbt4ce8PSMG7o7982Y/q0L7+i0OTHAEFwQeL533eM9ekmG2RowByAL+7aRc+RI4Oz/ardGxERick1QCmF3lZ1dHVXKreT1Juh3H6vfqWb8ffK45Xbr9KOP670YKuWAUs8dlTgGCoAElL7AcCpUx7CmKer3Y8xs3YS2ex31i845f+uO+O0IpMr1Ib1py+cYvoPryabvRmI/d9y4FAP/el03M1iE4l7b+zr2x97w9JQ5vyfmV8ikShmhnGCbHb1utPmnzSmZ09oDmjAJcA2m612F0REJEad8044F/i7Epp4Dss34uqPNIih2X6TB2f7vfqVMLFFy3yr5VUx1K1UMRCJx/Yyt98H1Ec6uQqq+QDg2Q89miaRqI9iILmy2VXmyJHvrD+j0HxhtWH9aW84mYH03QTBx8t1jP/9w6H4GzWGzIQJP4y/YWk0yzc/2WsTTZ/DmMJzRVo702QzN4zpqROOyxCqPCwiIlJLOue1nQTm2yU2c2VHV3cZBndSl8Kz/SZptl/VtUxw+f9iaUuzAKVk3UD8s4GO2mXhQBnbr0s1HwAEsBMnfgtj6u2Pl8AGF3LkyC/XLzjl4+tPXzCl2h0ai3WnL5i2fv7JnyGTWUsQpCjTe8QV/zgce7vZpqbOzx8+/GzsDUtDWr7111tJJG6gmCW6QfCO9QtPveRYT7MtExpyBqCIiDSGznlts4C7gVklNHO7sdRL3m4pF8PRSr6vmeJy+2m2X+2YdHzxxT/CNAtQSncQKGfKiF1Y21PG9utSXQQAl298oodE4q5q96Mo1p5ENvt10umfrV9wykXrlp/VUu0uRVm/+PTW9QtO+ZBJp39BEKzG2pnlPN7vX+ghE/MSQmtM2iYSq2NtVBresqd+8y+YxLoiXtpMNrtq/WnzTxztSbZ5QsNXARYRkfrUOe+EScC3gVNLaOZp4Lq/6OrWbPfx6uXZfpMHc/sNVplVfKh2GOP+PnFJJOILJsq4ZC0HKe8S3e6VXTvLOcOwLtVFABCAROLLdTgL8Chr30g2+13zh+cfWT//lL9ev/ANc9clz6xqMHD9sjc1r1t46knrF5zy1xzuW082+02snV/u4x4ZGODAC/EH420i8UD6+Ikq/iGFa2q6GmMKvwNl7RyymRvXnb5gxIQqtqkpg1UAUEREasv9806YPLjs980lNJMGrunYocIf405ubr9pr1Juv1rXOtEtAY6TAoBSgpVd3f2UNw/gb8rYdt2qmwDgsid/vQtjflrtfpSoBWuTBNlbyGYeN30v3b1+/il/ue70Bac+cvabKpJI4eG3LE+sW7Tg5PULTvkEL/zh+yabfZxs9hasXQRUpA9/ePEl+tMDsbZpjenJNjevXvVCT/1UjJaasWzrr7eQaBpTTr88QdBhMpn3jLT7nAcfyoBVAFBERGrG/XNPmGwwtwEXUtr1wBc7dnRr6e94EpXbr9SqslJ+U2Oc/TekuUl5HaVUO8vU7iELW8vUdl2rr7N184RVpI98gHrrdxRrp2JtB3CBSQcHzcGDu9bPP/kZEk1P0dz8KK965TPLfrGu5KDBL1NvTjQd6jmR9MAbTZA9nf2/nw+0Ye200v8RxXm+58XY27SJxAO9f/Tqx9hbeD0HEYDg+ONvT/S9dDFBsLzAlyYIgqvWnb7gweVPPLUr8hnGpLG21C6KiIjEwhhzG3DMPLbH8BCwKobuSD1oSrhZZMe3QHP9X4qNKxOa3d+uXG0fiXdih4wru3CpkuI+qXRh7dMxt9kQ6ursvWzLU13rFpzyBZPN/m21+xKjxGAwbhrWLiIIPkRmAI70p9e/4fX7MGYf1u7HmIMY04O1fQRBP8YMYEzGvT5oBnMcJjEJaMUGUzFmOtZO53/+dxbWxlTuqXQ9L/XxwksvxdqmNeZgZkLzLf+8d59yz0jRzvYfz6xbNP+DZmDgcawtrHq3tXPNwMAt605f8P7lTzzVl7ffmD4FAEVEpNo6554wA2O+DryjxKaeAS7r2KGqvw0tYeC4Fjfj77gJWt5br175CpezrxyamyCdQeNcKYa1eMbwEJCKsdkA+Kby/0WrqwAgAM0TbiUIPlDuIhVVZ20LMBtrZw8+Du8PbbNgs8P316Dne14kk403Thc0Nd010NKyjf4jsbYr48/yLdt2r19w6i1kMzcX/OIgeIfJZC4EogoWaWm6iIhUVefcEyZhzPeB5SU21Qv2qo4dO8uZvF2qaWi238QWLe+tdwa3XLtchoqBDCjbjRRuZVd3b+fctssw3AC8h3jiU9+z8IMY2mlIdZMDcMjyJ7bup6np6mr3Qwp3ZGCA378Q7/LfIJF49kjr8av+sedFzf6TWCx76ukvYBKPFvHSZoLgc+tOXzA7b4+1+bMCRUREKqRz3gknY8wGXMGPUsb//cBnO3bs9OLpmdQS0zrRBYumv9pV8lXwr/4df3z8xT/CVAxEStDR1b27Y0f3B4E3AD8GDkDBBRTTwG7gU4G1l67c0d0bczcbRl2e1W3zcfeYILicIDij2n2RsXPFP2KciWsMmeOO+9Sqnhf3x9eoCNgJzZeadPpxYGphL7RzzcDAqnVnnnbp8sefzJ31pwCgiIhURee8touA1UBh6S2iXW8D+60Y2pEalJjc6pb7SuP4ozIU/whrbnKzRmNe5SXjS8eO7mfvn/falYamacAUCotVpa1l/8qu7p4yda9h1GUAcPnmJzLrT3vDpQTBRmBStfsjY/Pfzx+Mtb0gkfjeDYcPr4u1URFg+ZZtXesXnLqqyKXAl5h0+hfAnS9vM6a/Vpfli4hIY+qce8JkjPkc8BmgpcTmAuD2jh3d/1h6z0SkIlqaofX4yhyruUkBQCnZyh2/C4D9gz/D3D+3rQXDXxqYbOEbK3d0q/pnEepuCfCQZU/++hnb1HRjtfshY9N7uJ+XDseXBs0asys98bgbYmtQJCQ4/vgvkkhsLuKlCYLg1vWnLzw608IYzQAUEZGK6ZzXNhtjfgH8DaUH/wDuNdZ+NoZ2RKRSXtHqCrlUQnOTisRIWRnDdQZuBa438KP75p5Ql5PZqq1uA4AA9k9m/BPGFJOrSyps/x9eiK0ta0z/keMnvvvGl/qei61RkZCz/ccztnnCuzHmQMEvtnYKA+lb1i1e1DL4WAFAEREpu855ba2d89r+DvgNEFeqnHuDgeC9f9G1U99lIvXCGPijV1XueEPFQETK4P65J7TiioQMWZgwZla1+lPP6joAePbPfxHQPOHSoi7QpWLSAxkO9MRW/CMImpq+eGPf4U1xNSgykuVbnuq2TYlri3pxEFxk0ukOQAFAEREpu865bacC64EbgbgSf90HfOzCXbu0tk+knhx/XOWLuCgAKGVjJgITczaEH8sY1XUAEGDZk9u6bPOE83FVyaQGPf/ii7EV/wiamjpfmvKq62JpTGQMlm/9zTdIFDXTuJls9pvrTl8wh0RizBFway1BNlvE4UREZDzqnHfCiZ3z2n6I4SlgUUzNZoB/7NjR/a6OHUqqLlJ3/mhK5Y85VAxEJG7WJgjHrtw2KVBD/NKWP7ltE01NyktSo/7n+T/E0k6QSDzd33r8pTcfeD7GUsIix2abJlyGofALIGsnmYGBr1vMq4/9VEt/JssLR47w4u7faaaFiIiMqnPuCZPdcl/zBHAR8Y7r/xFLcTPgRaS6WpqhtUrVnDULUCpH10tFaJjEiXZi6+3m8EunEQQfrXZf5KgX+w7TG0PxD5tIdPdPekX7qp4XdRdaKm75k9u2r1t46tUmk7mt4BcHwXmG4LyoXRbIBgFHslmOZLK8XCfY6vtMRESidc5rmwV0ANcDcU/zOQhc07Gj+xsxtysilTJlssvJVw3NTZDOgLXHfq5I8QKM0QVTERomALh84+OZR85c9KnEkSOTCLKXVLs/4vz3gYMlt2GNOZQ+7rjzV/W8uDeGLokUxU5s/Ybp630bQfD2ktuyliPZLP2ZLFkNkEREZAw6557QhjFXAB8g/sAfwD6wb+nYsfOZMrQtIpXyqknVO/ZQMZCBTPX6II3HFZjOjWpnBn+kQA2xBHjI2Y9vSdvmpstIJDqr3ReBIwMDHHyxt6Q2rDF70q3Ht3/+8OFnY+qWSFHO9jcFtqnpsxhzqJjXWyATBLw0MMAf+o/w0kBGwT8RERlV59wTpnTOa3tr57y2+zHmt8BnKE/w70GwCxT8E6lzrzi++stwq318aTzGNDM8dpUe/JECNcwMwCHLt2zrWbdo/ifNwMA0rD2r2v0Zzw719pEpoZiBNebgwHHHrfz8S32bY+yWSNGWP/nrrnULTrnRZLM3j/U11lrSWbfMNxMEKOQnIiKj+UnbaxPZpqb5wDuBFK6wR7lu2qeBL1hrb1zZtVMV60Xq3atfWe0eHC0GktUKTYmHcXGr3NhVxmoGYFEaLgAIsHzLtv3rFy14J5mBOwiCC2iwmY71wAL/feD54l+fSHQPtLScf0N/v2b+SU1Z/tRvvrB+/snnEASpkZ4zNNsvHc7tJyIiEqFz7glTMeZE4M1ZeD/wugoc9hksH+7o6t5SgWOJSLm1TIBXtFa7F05zM2Q1QUti0zL4MyQwVgHAYjRkABBg2ZanDq1bNP9jJpPpIwjeV+3+jDe9h4sv/hEkElsGjjvug1r2K7XKNjVdZaw9GWtn5W4PBmf7pYMsA7rrKSIio+ice8IcjDkDOB04FziZyozNM8CXwN7c0bVzXwWOJyKVMGUSJEy1e+FMaIb0gIqBSFzCMwADq/dWURo2AAiwfMu2g+sWzb/cZDL7CIK/BGrklkjj23vgD0W9Lmhqum+gpeWznz98eE/MXRKJzfInf/3M+gWnXE82+83c2X4D2UB5/UREZJjOuXOaMYlpwAzgVOAU3LLeEwe3VXKlyjrgJmvtQyu7dmr2hEiDaGppCapa/CPMoGIgEh9LAqNVnXFo6AAgwPIt2w49cs5ZVycO/uE/CLK3YMuSOFlyHBkY4PmeFwt6jTWmP2hq+srhSa+49qZDL2i+uNS8oPUVd2VeeOHi/oGBc5XbT0REYDDYh5mFMXOBNmAeLtB30uDjal3A7Aa+bq390squnaVVaBORmjPtDSf39zTX2KW9AoASG5sYKgUspamxs0R5nP3LRwPgW+sXnrqXbPbrWDu72n1qZL8/1FNQ8Q9rTG+mZcKHBya0/FTBP6kXZ2/YlO6c13YVsBaYXu3+1IkE2Mn/OndOcfkBZFTG2r4Lfvu7ejuHTv7XuXNUeKAMDLb3gq7f6cqrDDrb5rSSMDMwZjZHg3wzcbP5ZgJTB38mVq+XL8sAt2PtzR1dO7ur3RkRKY+mibVwuglRMRCRmjMuAoBDlm192lt3xsIzTTr95cHiIOPq318JFtj7/MExPz/b1HRvpqXlms8fPtzNkXq7bpXxrmNH97bOeW3XAF+lNi70at0UjPlPqzt4ZWFd4YDvVbsfBTGJ/9Ds2fKw8C7gvmr3oxCmpemOznlt1bpSTIR+mnGpY1qBSTn/nUp9pJTpBb6H5baOru6nq90ZERmnVAxEpKaMuwDY8s1b960/ff4HyQbvIZtdjbX1MIirGy8d7qc/PXDM51ljerMTmm8caGn50j/0vqTZH1LPvgecD1xQ7Y6IiNQ5FW0rXQDcCfbrWLOlo6tbU29EpHomNEHaqBiIxC3AoO+3Ioy7ACDAsie29QG3r1s0f53JZG4gCC6iejlZGsqe3z8/6v7BXH8/GJgw4cYbDx/uZgzBQpFa1rGjO905r+1aYCGg9AIiIlINu4B7wN7RsWNnV7U7IyICgDHKBSjlEBgFAIsyroNey7ds67ITj/8wTU3vxpjd1e5PvUsPZDj44sh5pYOmxLPZCRNWHnlF6ydvPHxYeWikYXTs6H4WuAmXa0lERKRStgMfBN7UsaP7GgX/RKTmtIzLOUcSI4tpZnjsKmNBa8uLMO4/jcs3PdEP3Lv+zEUPkD5yLUHwCaydWu1+1aP/PfRCZPEPm0h0Z5qbb31hxoxvrN69O01an1VpQDb4BiaxAnhHtbsiIiINbR/wEPBlrN3S0bVTsyBEpHYlEioGIiWyraEqwGlrNfGiGOM+ADhk2eNb+oBr1y2af5vJZj9JEPw11iqpfwH+J1T8I0gkdgfNTdcOHHfcA//wYu8hdmuSpTSujq5dmc55bdcBi1FVYBERiVc/cC9wN7C5Y0f32CuuiYhUW3OTAoBSPMOU0JbMQNYqAFgEBQBDlm/Ztge4dt3iRavNkSNXEAQfwdoZ1e5XrXux7/BQ8Y8gaGrakm1uvuWF6a/58er/2pNWnj8ZLwarAl8PrEbnVxERKV4G2AOsA75rrd20smuniqaJSH1qmQDpjIqBSFEMZnJoU+bdO3cpolwEXaCOYPmmLfuBa9cvmr+abPbjBMGHsbat2v2qVf/zh0NBtqnp59mWCbcefsWkR79w4ECG/9pT7W6JVJ4NbsckzgdS1e6KiIjUlT5gK/ALrPXAPNvR1T1ycmURkXqiYiBSvNbQYwX/iqQA4DEs27JtP/D59StW/AMH9iXJBpdig5RmBQLQRyKxOTDmthcmT37o/3v+Dwc5nIXD/dXul0jVdHTtSnfOO+H9YP4DmFbt/oiISE3qweXy2wqsBx4jyG7v+O3vdHUsIo2ppVkBQCmKtbQYc+znybEpADhGy9auDYDHgMfWLVowjSB7ngmC92PtWVgbjkg3NmO22UTiAZNo+k5w3MTus/1NisCL5OjYsfNA57y2m3CVgcd1tXUREeEQsAvoBp4ANmHpssbuX7ljpyqjicj4oGIgUjRLqAiIFEkBwCIs3/LUAeAHwA8eOSs5OdHb+1aC4J1YOx+Y3WABwQzG7AOzjYT5hT1uYufyTU9oba/IMVjslwzmHLQUWESkEWVwS3b7B3/6gAPAXtzMvt9h2Q726Y6unRo3iYiAywV4+Ei1eyEybikAWKKzH/V7gHuAex5Z9sYW0/viTAOLyWb/AmtPxdoTqa8ZQAHG7MGYzTaReARjHqWpaffyzVt7qt2xBnUAuK/A1xwqR0ckXit37Ex3zjvhY2BuobBzwF6o/bL2K3/3u6BzXtsG6qCv40i1S60/jHv/Sm2odtDpV0A9zW4LcP1N485rQ//fC/wB9917CMshDIeAPrB9WNMPto/A9nd0KyG51L29FD4urUXbq92BKjhEPfztmo45JK72WEbqg75vi6R5lGW27uxlk+h5IWmy2Tdhg7lAGzAda6cAk6hOEDaDMX3AITB7MXSD+Q+aEpuDV03ZcvbD6w9WoU8iIiIiIiIiIi/rnNf2GWB1zqbNHTu6z6xWf+qZZgCW2fJH1vcCDw7+ALBu6ZnTOHy4DWtnGJhJEPwJxkzD2qkYMxVrpwJTMGYy1k4a85JiY9wda2N6sfYQmB4MPVh7CJM4gLX/TcLsA/aRaNpnj5u4Z7m/SbM1RERERERERKQWTQo9VtXRIikAWAXLNzx+ALf0c0weWnFOoskyxVrbQhAkTBC0ENgEiUSa5qZ+29zUZ5oG+s9+YJ2mwoqIiIiIiIhIo3hV6HFfVXrRABQArAPnrv1lAGhZroiIiIiIiIiMJ1NCjzUDsEj1VJxCRERERERERETGj3AAUDMAi6QAoIiIiIiIiIiI1KJwTYR0VXrRABQAFBERERERERGRWhQuAqIZgEVSAFBERERERERERGrR5NDj3qr0ogEoACgiIiIiIiIiIrVoaujx76vSiwagAKCIiIiIiIiIiNSi6aHH+6rSiwagAKCIiIiIiIiIiNSU++bOaSVUBMRa9lSpO3VPAUAREREREREREakpCWPCs/8Au6viHWkQCgCKiIiIiIiIiEiNMbNCG9KZgN1V6UoDUABQRERERERERERqzdzQ430Xd+8MqtKTBqAAoIiIiIiIiIiI1JoFocea/VcCBQBFRERERERERKRm3PunbQngjaHNz1ajL41CAUAREREREREREakZTYapQDgH4OPV6EujUABQRERERERERERqhjG8DpiWsykNPFal7jQEBQBFRERERERERKSWvJPhMat91tq91epMI1AAUEREREREREREasnbQ48fW9m1s7cqPWkQCgCKiIiIiIiIiEhN6JzXthB4XWjzj6rRl0aiAKCIiIiIiIiIiNSKy0OP01j7cFV60kAUABQRERERERERkaq7f17bNOC80Ga/o2tnTzX600gUABQRERERERERkaozcA0wM2dTYOHmavWnkSgAKCIiIiIiIiIiVdU5r+1U4OOhzduwdl0VutNwFAAUEREREREREZGquX/uCTOB24BJOZsDC59b2bWzr0rdaigKAIqIiIiIiIiISFXcP/eEZmPMaiAZ2rUuCLJeNfrUiBQAFBERERERERGRiuuc1zZlMPjXEdq1G/jUu377u6AK3WpIzdXugIiIiIiIiIiIjC/3z2ubDdwKXMDwCWppC5et3NG9vTo9a0wKAIqIiIiIiIiISMV0zmtbDHwZWBTaFQBXrdzRraW/MVMAUEREREREREREyur+uXMSxiTOAD4LvAOYGHpKBrjSWvuVinduHFAAUEREREREREREyuK+uSdMNIa3GsyluEIfUyKe1g9caeFrK7t2Ku9fGZhqd0BEREREREREROrfj/50TqIpkZhqYbqBs4C3AW8kOug3ZD/w7o4d3Q9XpJPjVM0FAO957WsTE1qaZmPtTKyqFIuIiIiIiIiMO8ZMNIYpwEzgT4BJuPxw/UAaODL4uBBDrz8E9Fjoxdo+bHzdjp0xaYztxdKTDeyhbF9/X9O+fVXpSnbmzETT8S2tTcZMATMNmGkMM4DX4v5OM4FZwHRgKsdedZoB7rRww8od3bvL2XepsQBg57y2k4AfAidXuy8iIiIiIiIiIjUoU4VjJiC2SVr9wKPAdR07ujfF1KYcQ63lAPwwCv6JiIiIiIiIiIyk1mI5Y3UAeMBib8XaZ1d27apGIHPcqrU3zYvV7oCIiIiIiIiIiJQkgwv4dQE/Ax5Op7NbL/nd71Tgo0pqLQD4NWAekGL0BJGVlsFNUe3laL4BvWlFREREZDxqAVpzfmrtmkJEpFHEuey2HIbiJIdwhTz2AV1gH8fyrDVm/8od3Qer2kN5WU3lAAy7twbe6Bcp0CciIiIiMqpaGLeLiDQaO3Ei/MkftzQ1JSYbY6YY7GRrTQvWVueca0zGGNtnLQezgT10Ufeu3qr0Q0REREREREREREREREREREREREREREREREREREREREREREREREREREREREREREREREREREREREREREREREREREREREREREREREREREREREREREREREREREREREREREREREREREREREREREREREREREREREREREREREREREREREREREREREREREREREREREREREREREREREREREREREREpIGYandgGM9PYE0itDWgfUkQT/sbm7Ghbe1LMrG0XQ1rNiXAluf3tWZjAhjetiEgFdPfIszbmMAS/rfEI66/8ZqNzbG0M1bl/H1X25oNUzHmROAM4E+BGUAGOAT8DngM6CKV3F/5vpXp71yOc423KYHNOweMzACpGjrnFfq7NkCiOeC806v7uYg6P8b5XZX/e4mv7fxjVfZc746Z/3cv9fMR9f2OgfbFtfN+rwVx/u5/7icwoTFbKX/Hcr/vy/G+i1s99LFQhZzna/XfWq5xgbEBqWR9jfPW+AnIu1aLlzEBqcWV/b14/iSgDVgE/BkwG2gGeoDfAtuAZ0gk9nBehfsWVuj7MWFhRbI2P1tRHtyQIDAzgJOA+cA8YAqQxl3AGJ5pAAAgAElEQVQn/AewCegmlTxU8f55/keB94a2riKVfLDifREpQmUDGse2HGO/Htp2H3BNPM3bX2GYlrNhO3B+PG1XgQmuBy4Jbf0s8EDpbduPA1eGtl4L3Fty25FsB4ZVZWl6rf82ViSfK6kNzz8Z7HeAyfF0akxuA/65gscrr7V+AstbgY8Bi4Hpozw7AA7i+R6wGszWigRDPX8O2H8DWsrQ9odJJR+Lt9HgLAzfLOQFeP5QoHU38BywEdhUlUGUsXfjBndjFRAMBHh+D67/vwY2g91CaunBsvQxirGfBi4Pbb0RuLPkttf4J2Lsv4W2fhX4YsltRzH2PODLoa3fBf6+LMfz/EVg7wBac7ZuJn8wXUibJ4H9Noapw3fY64AfFN1uo/H8EwfPb7m28+Bj7+S8NxZ+fk3wIbC547N+PP8yUkm/yL79jOHB6G8D/1BwW1HW+pOx9snQ1i5+6Z/POTV0YWzsrUBq2DZv4ztJLXm2Oh0qkee3gV1D/g2TKLnn9ueADcAzpJK7ytjDY/M2TAf7I2BmGVq/Cbi9DO2Wj+ETYD9b3oPYeK5lxsLzZwFXAe8AZjH6tXEvQfA0nv9ljLmPFVUIWK/ZMHtw7DTaGHo4S4Dnp4GDQBdu7LQJy9O0J/vL09EieH4rcAkB7wUW4oJ+IwmAfXj+vcDqCp8nXgssD20rZCwuUlW1FgBsBeaGto39BHdsbaH2auekV5zp5P++JsXU9tSItssZ/Joccby4TIypjTZG/zKK22sqeKzy8fxm4CNYrsXdUR2LBDANeJ/7sQ/j+VeQSj5Trm4OagZOpDznxtZjP6Vgkyj+c5PM+f8Az9+ECzTdRyqZLrlnYzOL4vt/BnCh+18T4PmbcYGsSvT/NeT3e2rUE4swMaLtP4qp7XyGydi84/1x2Y539Hs+9/Owr+jW3MXb3cCpoT13kUoq+DfcLmAOw89vk8gm5gDdRbR3Mfnv1bOAwgOAcDLu3JvrQBHtjCRBfl9rJ/B31Ezy+xnHGKZaWnD/nkJmjC0a9sjzdwH3ALeRSu6OrWdj14wb/80qQ9txfW9UUtT1QdzKf7Pd82cANwMXMfabvpNwY6ck1t6I51+LG3NU8lzSgns/zijy9We9/H+GPjz/58AqDNtYUaXZqC7w91fA1Yz9b5/AnS//CvgMnv9T4GOkknF+b4zkSMS2So2bRUpW3incIjK+uQHWd3GzGcca/IvyZuARPP+iWPolYQncoPb7wC/dbJy6ksDNKv0u8BM8v9wXJ1IL1vgJ4Dryg3+bcTM6JJcLjG8NbZ2KKeJifs2mFnIvJI96A96mYsaW4T704WaBicwB/hb4NZ5/C96Geg6ISi3w/CTwBO4mc7ErPtpwY6Y78DbW63uyFXcj9VdYVrPGL8eN6tF5/knAI7hVFMUGfhPABcAGPH9xXF0bRVSwTwFAqRsKAIpIeXj+ItyX+iWMfK5xS31hD27Zz35Gnpk7Dfg2nv/xwVmFUh5vBJ5wy97rTgK3fO6RCg0CpVo8P4Hh08CHQnt6gcuqkj+0PjwaetwCvK7gVkxwMtEz0xZBUMzKjdNDjw+Arc9lr1IuU4C/BvNrPP+N1e6MlE15g/+e/3bc2HS0GZ09HB2X7mPk4E4C+ADYn+H5lVwhFLdW4NMYvo/nV25Wque/GXgct6JjJBnctcGewZ8DjDx7+0Tc+O+8OLsZQQFAqWu6iJZathsoPaGqJY7cYAeAuxj7Ms7ZQPgL6DnyL75G83gBz60tnj8f+BHuzn2ULlw+yR8B+7C2FwwYJuLuAC4GPkj+77AVWA08iysUUgkHgB/H0M6eGNoYi4eBz42wL4FLHTAbd8G9iPxld+D+Bj/D85eQSha/PLNw/cA/YfnPyL2ubNV0XP6V+biZX1GD1VnAHXj+W0gl95alp1Jt5wKrGD6OyQCfIpXcVp0u1YWnIrb9WRHtjBSAmYubGVPoeSMZeryL1FIFcRvTc1iuH7bF0Iz7fn8tRxP/j7Rq4ETgF4N5de8pZ0dHEQDfiqGdejxXbSOevIVDs7bC3+FfI5XcEkP7+Tz/QtxKgahZf/24sd63gWex9OD+zi2D+ePfClxG9A2Tc4H78fyVVcmnDD1YPjniXvf5mokrpjEf9xmLuoFzAS6QdXEZ+jic53fg/hYjXVdtBn6Iuw7ch/v7JHD9norLwXcZ+XmkJwLfwfNPKeNyYAUApa4pACi17GlSyY9VuxMAg8llrxjz890dxnDw6rGa+feUk1t+eTfRwb9dwPWkkneO8OpeXMCtG/gBnn8W7iJ/Me6LPwDuxLI53k6Paled/d0OFJSE3/2Ob8L9jnPNAa7HDbAqJQOspX2M/fc2NIO5CLfcMzwIPAm4Ds//VIXz80i5ef4c3DkmfOHwz6jox7Fsx51Hc2dln4jnTyRVUDL4t42ybyGF5AH0/OnkF1jYXkBfpL7sp30M+TndMs2P4YozhINEE3E3eXpIJX8efxePKV1n44L4pJIPEEeBDs+/BHhPaOtuMNdHPT2G47UB3yE/8BXgAn/XkBqxYOBB3E38L+L5n8AVRQzPIHwzcCvw4dj6PHb9Y/pMDVnjT8VwFfAB8s+9F+H5PyKVvC/ODg7jVph8n+gg5BbgulE+1z24GYHbga/h+e8BbsDdeBry1TLnAlQAUOqalgCLSHzW+M24GXpRd0gfBt4ySvAvXyr5KPBO3OxLcBeV19FesSIVjc/9jlcAP43YewmeX8nK14VJLc0MFno4h+gLkosoZnmj1C73fryV/IDANmCVgr3HtA93IybXXAopRuD+BqOlCFhQYJ+ichBGzVSU8SSV9EklPwy0A+sintGKSwuinK/1Zu3GZlzBh9wAUABcTWpJT+zH8/wWXJGw8E2jDPAN4OJRgn/DpZJfA84nelXHe/D85cV3tELakwdJJa/Bja+jbrZcg+eXJ6+h+/64g+hA7O1YVhQU1HdjwLfgrjEAforlH+Po6iiirkE09pC6oQCgiMTH8AHcMomwu4DzSSW7Cm7T3cW7DLesVbm9yiGV7AHej1uanWsybklIbUslD+L6H551NAV4e+U7JGXh+QncbNXwe3IX7gKuGkuv6s1+IFxNfQ75s0BGE65A+TAub9eQRazdWEhi/fDs3aE2RSCV3EwqeTbwFfIvsqcDd+BtKLaQg1SDtX9H/uf+IbCdZTriSGPTL5BKfrLgG0cuzcQyXKqiXC3ArXWTD9Attb6M4edvOLpMuBxuJD/nXwD8E6nkx2hPFp62KZXsxtIO/AvY99Je9huBmgEodU0BQBGJh6v4+9mIPU8DV5JKhgcYY5dKpkklP08qqaTw5eKCgN+J2HNapbtSFBf8+WbEnvrov4zF+4BPhLb1AJ8d8+yN8c5d6EbN+ChkFtVyho8f72d40v5ZWFvIzNszQ497aDaF3yySRncl0bnnkmDKnfRf4uL5p0Jevrp+4EpSS+MPoriicddG7PHBXld0u6lkN/CpiD2n4r6r6oTdBIRn3CWIvjFTGs9/HfDRiD0/xpiRclePTXsyTSr5KVJLe0tqZ2yiAowKAErdUABQROJyEfnLwg4Cl5c5F4fEJ6pIzYyIbbUqatbQXLyN+q6rd66q862hrQHwRaKXr8vI/j1iW1QxoJG8Jef/h/Jn5d6cmYIrMHRs7uJ8YWjrds5dEhTQHxkPUsk0lqvJD2A3A9exVuf5muf5k4DryB9XfIFUMjwzOS4p8nNS9wCXlxxwNPyc/GIwCaqTB7A47nfwy4g9ry/D0a4lf+lvN3AFK5bU0xLa8Psmg5YASx3Rl6WIlM4tv7kyYs+dVK5ar5QuqnJnefLAlEPC7CF/KcsUsGPPbya1x/On4XIGhf+ODwC3kEoqWFSYqJnUf17A63ODe3sGK23/JmdbgrHPvJ1CfjBAM70lWnuyB1f0KXyxvQhrz6pCj6QwF5CfwqEblzs6fi5tRFQBvwdJJbeW3P6KZIC7MRUedyzE88d2E6Q2dOFmYeZqi3pi0dwqoahl2NeSSkblU6xlUQFAjUOkbigAKCIxMElgdmjjXuCbujive/En5C6X85YEuBxnuVrATqpGdyQGbsbIN8nPR7QVt/S3ft6fNcNsJz+AMpc1/rHHhJ4/G5d3bci2wf+Gg3aLxlhAaAYuCJgraoaiyJAHib6xeGmlOyIFcAGgKxl+7RkAV5VxlchsovPNhWeTl2I70asnPhjjMcrtEPkBwLhvnF4Q0eYeLOXK+1hO4QBgGs0AlDqiAKCIxGFFxLaHSSWjck1J7ZoVsa274r0oTUQyeKMgdP26nvwZI4eAjw3mYJJCpZb04nKz5pqJifz8h4VntawHwOYFAE8l/6bQSO015zxOoxmAMppUMo2r6Bq2GG+DZnvXorV+ApcjOpxX7sekkuUMAJ2LK2aW6zlSyXDBsOK5vKpfj9hzFms21MsKigT5MYG4x03vjdh2F+3JesydFxUA1DhT6oYCgCJSGm9DK7A4Ys8vKt0VKVl7xLa1Fe9FsbyNLQyfnQTurraqw9Yjz18OfDq0NQBuimX51vgWvgCeytgKgZyT8/8BL8/EMruA3OTrExlbFcnTQ48PYlFBFzkG+zD5F9wzwZxajd7IMVgWAh8PbT2Au8FTTlE3px+K/Sg2cgbgLIwppBhSNU0HWkPbolLCFMfzJ5J/8ygN3B3bMSorPNtPMwClrigAKCIlMrPIT+LeC2yuQmekWJ5/MvnV2Z6J9U552dmFDJ9NBLBXy0TrkOfPB35I/ozOrwFfqHyHGs4TocfHDth5fgtuRs2Qg8AuANqXZIB1oVecPYZ+hL879pCwmtkpo0stPUT++62V/PeTVJu3YSLwVfKX+l9PKhmeiRy3qPfDv8Z+lPbkQfLHvFNxM6Hrwenkj51+E/XEIi0nP5/0biz1Wu1dMwClrikAKCKlmk3+EotnifPuoZSX588Evs/wAXoArKpOh4p2fsS2cl9gSNxcoOk75M/m3AZcPbjkSkoTlZ5h3jFeMwOYmfN4P9YezHm8MfT888bQj/Cswy5WLNWFlIxFVB7AP614L+QYzIXk5+HrwhWJKx9XnC6chqB38NjlEDULsPbfj54/FXh7xJ44x07hvz/AVtqT4byD9UJFQKSuKQAoIqWKqhT2HKmkll3WOs+fjOdfgpsNFL5TfQ/G3luFXhXH8xcCn4jY88tKd0VK4Ko23kr0zIkWjK3XC4ZaswfYHdp24mDwdSQLgdyCOttpX5objN0Wen4b3oaR8wq6C89poa2/HuX4Irl2RGwbS95JqRTPnwVcF9qaAa4gleyNeEV8LCeSP6vtENhyjU3r9f34IfJnSh7CFdqKS9TNpfANo/phVQRE6lv4xCj171I8/00xtFMLyyhOwvNvLvK1PyKV1BLUyvg/Edv2VLwX5TOrhPfhWlLJ+PPNjG4Wnh8umjAkgZvFcwIuwHIS0YU/HgAuY8XS+hjQuOXLPyK/wtwW8peJSW37NPm5ooachDWfBr5Ywf40KHsAzLMMv0A9EReQ2zvCi94WehxeRrwdtyw453NoFjLy98GJEduiZnWJRIl6n4ZnDZdLcwnjgt+QSt4Va29q1+fIn+V7J+XIwxdmTNTN6R5IlCvwGP1+9Pzmmpy1vmZDAmM+gPsbhd1DKjnS90AxZkRsq99cr8amweRuSYPVDECpGwoANp5zGZ6jp561AX9T5Gt3oBx0lRIVQPp9xXtRPjMo/n34ApUY6A6XpPgcNweAVVj7FdqX1n5lNs+fgQsWXU1+Aut+XLGIg3mvk9rkin7czOhjkyvw/E5SyfDsNSlEamkaz38WSOVsnYMLoIx04Zcc/tB4of17cbNGcscgpwM/HaG9k0OP0+h7W8Yu6tweTkdSLs0UPy7oBBo/AOj5SfJv5nQDNwxWci63qKDTPlJLyhWoiXo/TsHlvivvbMdCeH4z7ubLKtzS3/BqwEPkz9osVXimN7jxZn2yZIbH/0iDqb0gr8gIFAAUkVJFDbi1TK/+uIAZ3FXF4F8CmD/KMsSJuEDfHFy+v1PJn/U35C6M7Yy9h1IebjnoN8kv+hE2B/gULugrpfmP0OMEbrZOeCnvUBXH3Bl7PRgzPEdUKtmP5z/N8ADgfNb4LbRHXvCfGXrcXaHAgDSGflzerdwARvhGkFSD57cCX47Yc1sFb95MithWzkBcX8S2iRz7Oy0OLYM30KIkBvsxGViAu+kzl+jPShq4jFRyf2w9e/DxZoJsuAAI1PV1gslfAmyVA1DqhwKAIlKqqC+9wu6Eef5viM4lOLJU8hUFPV+OZSJu9tVNeP5jwKdIJZ+pcB9acdUCSxEA3wOuVDGButEC/IT8pWL7gMuBuxk+Xvk0nr865iVK49HTQA/Db+KMVAk4XGF7CysWR32+Hmd4UOYMDDMZqhY8xOV6XBx6bX7gUWRkmcGf3ABLVNBHKu9D5KcSWgd8o4J9iLqZUM5ZWlEB6UlU5lp7CvBIiW2kgQ+TSsab+9mMGBgb+99izYbpGLOewnIqbiKVPKeA54+dicgBaLQEWOqHAoCNJ65EpC1U//0RUPwdIs0iqJyo91uh752hmV1j5/sJkslKfOGW8j6sxpKAfYycvHnoTvBE3PKYWeT/rRLAWcBGPP9zpJL1lG+tD7gW+Bqpuq0uNx4tIn8ZUj/wQQwPY3mI4UtVW4EbgEsr1L9G9RxuGVZuAPD0EZ4bWv47Uq4+uw3MAY7mYpuOC+zuGv40pmDy8rXVb1J4qZZqFjOMmvE1Fo09Pl3jTwduDG3tBW4kleypYE+ifs/lvK5JUL/FNbtwhVl+HnvLbzkzwPOjxuqF/C0SuO/9Qq4TomYdxsOSDi0BzmASWgIsdaPaAR6J3wdJJe8puRXP/zvyv8Ar7eekkudXuQ9ybFFLKsr3xTukMsE/gK2kkiNdFNeiR0klLx7TM9f4LRhOBt6Fu2OfmzNnEnArnv+nuIFhrd7dDHC5x76FW160r8r9kcJFXTR9jFTyQQA8/3LcctXcMcsleP4PX36OFC6VPITnP8fw2ddvHOHZ78z5/wD4WXSbS5/D87sYXoxhMeFcqIYZDF++HwCPjqnfIk4L0TcOKqFfqxAiuPxyX8fNSMv1tSoURIsam5ZzhmjUuLeP2q0OmwaeBW7BmntpX1LOwHTU57L81wnl0kya7LAt/QRaAiz1o17vVIhI7YhKfPzqsh/V93X+KlV7Mk0quZVU8hrgDbggWtjHgfMq2KtDuFlJUT9RA+mvAK8nlbxOwb+GcR/G/uDlR6lkF/C10HNacQVBlPOrNNtDj6fgbRiePN/zpzA8SHgQ7Gh5vJ4OPV4W8ZyTGB7QPYSbvSwyVpPJv46pnWIL41MSV1gi1x7iLyoxFlFj03JWiQ4HPQF6sRWZ8Rkw8rgp6veQAc4GlpBKfq/MwT+I/lxG/b7qw1vyqjpnaF9Sq4FekTzjbQZgeKCgaL1I6f43Yluhg6wbGX0w8Be4ZalHWVvgIWRULunzpXh+BvgoR8+XLcCteBsfLGP1vCG9wNtIJf3IvZ5/E/B/Q1vPBa4pc7/Cyvd7MMd+SoPbDFwakb/xVuADDF+u+lbcxWa8OYvGl3/P32TmMjwYN5Ph5/QuzITRKjg+GXqcjCgEEi4Asp96rgop1RA1ztB7qFrW+hOxrGb4tWUGt/S32OXSxbN2NybvC3USnt9apv5EvR/3Q6IS//YDpJJ/HLnH2zARzHrgjJytzcC7RxxrxS/qcxlVpXkkPcD1jF7l+wpckbBK6efoLMbGXtYvDafWAoBx5BIbTbgtfWBFSrcnYtscPL9lzBUdU8k7R93v+a8lHACUcrkCl7x7Uc6214FNAfHnhymE5XoMH2L4QPsk4CO4mYCVMhCxLZ5Kf5aJEUHAI7G0Xfv2g11Jaml+nqhUshvP/xfgb0N7PsvajQ+wYknlLzAbw7MR205keI6/JMPHTw+y4ozRguBbGZ4MvxXDiUBuUaFTQ695jlTerAqR0cyJ2BY1HpFKsHwGmB/a+jDRKwvKr6mpiyAIF+WYMvhTju+LORHb9tAeWSypclJL+/H8K4Ffhfa8D8//Pqnkpgr0IupzeRpw15he3b60j2O9jzz/XVQ2ANiHAoBSp2ptCV1UjoA4l/eE8w1UMhmtSKPqJn9G1Oso71ILIu7sShxc8YybIva8M2JbZbUn+3BLicLvt+tYu3FqxCvKJWo5yytjadlE3uEeD99VfcDFpJaOdgF/E26mWK4zsPYj5etWw9uNy6GZa17ocbiS4rGqTe4mf2nxyaHH4YrPUYFIkdGEZ5GCK2Ygleb5J+EKcOXqw9orxnwjOG7nLU7jzkW5JuOKn5XDkohtvy3TsQqTSj4GdIa2TgGuwvMrkYvvNxHbFrO2rlP55MYsFACUulJrH7yoi6rJsZyc1m6cTH4AUEsFREq3j/xB1mzKfSdOS4DLKeqO8IkV70W075EfLJiGtZVcBlzqcpbRRLUzHr6rboLE6EUgUslD5BenSgCfwvNnlqtjDe4A+cG6NtZuzB0fhmfrhXP8hZiDwLbQxte//H+e30L+Rfjjx+inyFHexmZc+odcAa5YkFTezeQvz/wS7UvD55ZKCx8/Abw59qO4c1p4lUp/xPGr6SbyA1VvB5ZX4NhRVePnYKnkjdu45QYANXtd6kqtBQAPkR8EnEkcVZusfV3E1u6S2xWRfbi8XWHLK9wPiUsquYf8Ac10HtxY/e+MVLIX+GzEno/i+Ysr1ItdEdviCpD+WcS2Ri+OsI1U8u9JjWmp1F3kX0y8juj3hByLm/EbDuidiLUuJ6vnT8L9fod0k0pGJZXPaXNJQH5Ab/5ghVBwKQZyl8yrArAUyC4mf5XBfqLHIlJOnv9WXD7WXM+Sf7OmGtZEbPuLMhznDPLzWO8Fu7UMxypOKrmZ/Hy5LcDVZZ8FmEpuJ3+m+XRchfh61Y0bC+4C/qeqPREpUPUv5obrJf8EMQdiuUOwMGLbf8bQrsj4lkoGwMaIPefkXPDFb2lekQCJV/hOcTM2pjx3JTMPkx+0mILLX1gB9rmIjbNiqkjbFrEt/L3YaMZeudPNAvxyxJ6/xPOjfndybOFZU20cHXclGT5WHOsF7dMMz7N1EjBt8P/D47G9xwwqjgdrNyWIzHtt9V2X74MR27ZjtAS4olyF8Jsj9twweLOu2h4mfywzvwwzxi+O2PYMqaW1Nnv/evLTbSWBCytw7KhZgB+uwHHLw9qLsfb0wZ9/rnZ3RApRawHAg+Tn75hEPDMronIzKOeMSDweJD8v2yLKsdRiyK9+VWvnr8bh7gaH7winaW6qjTwnbobR1eQP7C/A88+IeEXMx1+6n/xcdNMpdRnwGn8i+bnSMkTPOBy/DD8lf6ZPK3BFWW86NK5nGR6Ezc2TtSz03LVjatGyjeGB69k5bb4+9OxnELBBC/l5rwOUX2o4zz8R6IjY8xNWJBUsraxrcMH9XD+lViqzW7rIX4bbAnwqtmN4/nSiA2g/iu0YcUklu4Avhba2AFfi+XGlMRnJt8m/TkgN/v7qT/vSg7QvPTD4UwvBbpExq60LaJcoNiq3zIqS2nV3qMIXhWmsAoAisUglnyX/7t4k4PKYZkXle9ObNNAvn9eR//2wj3NGrfxZWdY8BHihrROBG/A2ViKpdfi7qpXhlZMLZziD/BmA2weXacqQFcl+4HPkB0Y+RKl/g/HpWfLzTA4V6cjN/5cmehZHvvbkIYYH9po5GigIFwDRsk2nlfxlrT1EF8gbz1aRvzLoIHBn5bsyjnn+QuAzoa0HwV45uDKk+tqT/cAdEXveM3htGIcO8m/+HQDui6n9eFm+Sv5km/lAmYtp2cfIT73VClxV3uOKSFhtBQCdJ8nPPfUe1vil5AFMkX9R5dNeE9PTRRpF1LK8FNF36qW2ReXIiVr2Wj3tSzJYPhexZznYd1SgB1FLId9bYpvvJD/nrV9im43qUdxMk1yTya9EKcfilt/uCm3988HZlLnBuv1YW8hy9CdDj98w2Obs0PYNBbTZyKaSXzxrL+OjCvjYeP65QNT5/XuD6QGkEryNCVwgNnyz7S5SS2ttGfYPyL9ZNIf84GXhPH8qcF3Ens6avXHXntwNfD1iz1VlnQWYWtpL/nc2wMfx/PllO66I5Km9AKDlYfLvTEzFFHmidifnKyAvd9V3impPRKJZfg48ENraDNxWweIMUirPP5XogfH9le7KMbUnnyZ6OcvnKrCcZQ35uevegecni2rN9fdDoa0Z3LIZCXMXV6vIn7n2djw/VYUe1bvwMtzFuFktubmyttK+tJBgVPj74M24XJ3Tcrb10mjpWDx/Ep7///D81Xh+IePsheRXUt2OK5An7nP9I/LzJO4Cbqh4f8Y1+x7yU7xsxy0Jri2p5AHg9og91wwGlIvjVrd8h/zZf/uBrxbdbmV8A9gd2jYFFwQsZ2zgBvJzGk8G7sfboBy+IhVSewHA9uRBYF3EnisH834U6qPkL//diyrOicSrPdlHdDLoScB3BpeLxGfDhto7f9W7NRvc3yq/ml0XNrGu8h0ak6+SH4g7GbiozMf1ic5dtrrgGetrNzYDt5C/rG07mG3FdW8cSCW3Ap0Re64oW+oBz38Pnn83nv8jPP9veLBhzkPhQiDzcbP/cgNSY8v/d9TTDA9enYyb/Zd7fjmAW77ZGNZumAz8EDcr6OMUVuUyqrDFU6SS4VUx44/nvw+4m/zvJoBVg0EeqQRXGXwVwwOxGeDKmp315vobzts7Efgmnl9s2ohbyK9+DHAXqWRUOqvakUr2EF2l+UPk5yGO87iHIHLlRhuYH+L50yL21Z41jyXw/E/g+ffj+d/F85dXu0sihajVgesd5C95mAr8K57/ujG14PkteP5f4QZh4X/n7aSS4TwEIlKqVPJR4O8j9pwIPILnf6bgC3M3oyr/Lq2qAMfH29iM51+IMRtxF/65MsDVtC+uzd93Kvkc8JWIPVfg+eGlhnEeN010wHsRhn/F28pmDMgAAAuASURBVDC2/EKePxVrvwlcErH3OlJLavWCqlbcCuwLbUsR/fssnhtT/BD4/mDbFwI3E5g1rC0pRUmtiMppGU6UP7b8f0NcHrAtOVuagcsYHjh4mlSyj0bg+XOwZiMuKNCMCzDcPabCRJ5/IfnBhEPAz+PuZt3w/GY8fzmefz/RN6YAvkIq+Y0K92z88jYkgNUcLegz5Ftgwzl5a0cquQd37gmbA/wbnn8R3saxFZDyNszB8+8GPkH+9eVWTN2kobgHVyU511RcsLR8LHcRPSNzEfAknt+Bt6GwYl6efwkud3X5eX4rJnEHcBsuxdH7gLV4/l9X5PgiMajNAKCrHndXxJ6TcB+yz7DmsZH77vltuDuFq8ivqHYI96EVkfK4hejkx5MH9/0bnn/hMb/gPX8unn8H8DPKeUdyvHro8QTehrl4/v8F+wgusBH1e36A6LwtteQW8pfJtRE94I+PMT8mOkffuWDWHnMpque/Ebe0+gPkfx9H5biTMMtzwLci9lyHtyHOwNwZROczPRfLR2M8TrXsIX859QU5/58GE66mORbhGawfCj1unPx/hr3k51Kcjbt5/Z4RX+f5HyA6h64PdnzNAF67qRnPP3XwBv4vcN//HURfr3jU4pLThmbOJX92fS/wOVI1flPWVY//QcSe6cC3wd6N54crGh+1xm/G8/8SzC+JvsG0H7icFcn6qNrtZgF+lfwiQ6myzmhrT7rZotF5pWcD3wXzr4Pjo9F5GxYP3iD4NvkrKMrlLFzQL5erLF3+1DMisSgswl4p7ckMnn89bulEeGr2bGA1JnENnr8Z2IibLdgMvB43SD+J/Jx/4JLAXkYqGZ4tILXp7Xi+jaGdZ0glT4mhHRmLVLIHz78MF/A7L7S3GVjufkwPnr8FN/Pkv3AzzaYAf4rLhXQSI9+k2BR/x0e0KKb34W6wf05qablnu7wZz39khH0J3E2RyWSys8AcazbmY8B7a34JWip5AM//HPkX0X+J5/+wbMtxViwJ8PyrgJ8wPK8ZuO+iNXh+Ny5I+BRuoN0KvAFIkl+casgh4JM1/3uvBe3JAM//Mu6iNLdgxWwwnwH+IaYjvYXoMVMCuBT4YkzHqZb9uFx8Z+Vsy/33PkNqSTEXtk8CAUfP5eGxWeNUAF6RTA9+9z3F8PPBTOD7g+Padbjl1mlgHi6PWtSNlwzw1ZoPqhRnEZ6/M7StGWjBBlOIHr/nCoB7gQ9XccnpxJjGBT3AgrpYlbR2QwLLdeQXqpoE/C9erPWq7iSV/HCcDbIiGeD5l+LGmeHZtq24Wd0X4PnP4GYu/yfuc/oa3MqIJCMHmfqA95NK1lnRLvNjsA8Bb8/ZmABuxfOXlO3z5a4T2nG5lMPpvVoH+/N2PH8f7ibSNuD3uM/+H+Fm+y1k5DFUePZ5nJYRPRaYjRv36cat1LzaDADC0AXdSuARoj/gM3CVwAqp9vhZovMFiUicUsmDeP57cUsko2Y3gQsQvpn8RNLH8gNcYR+JNg0XZC3VF4Ab6mh53g9wObRybxpNwb1XLi3bUVNJH8+/GDdTJSqg2jb4E75jPJI0sJJUsrEKI5RTKrkPz7+Z/MqGV+L53yOVDCc7L8ZLo+w7iTV+62Ae1PqUSvYNXvieNcIzir3pshUXXBxpZkQxswprVyq5ZzDIELVkdS7Dg9Sj+RKWB2PtW+2YSH6147HqAy7DcG/dzLRqFNa8ERcEq1+pZD9r/YuxrAY+EvGMZlywr5CqtPuBi0kl18XQw8pKLQnw/FtxaTNyYwKn4q6v7y3fsZPdeP7ZuMI+I72vZgz2rdDCXl8gOtdgHMKFmoY0kx8cF6lJtbkEeIgbtL+N0mf7DM2m+BfNqBCpkFTyACZxKfAu8nN0FWM/8Ekw71fC77LJ4GarnUMqedXgEpH6kEoexC0FDrsQzx8pqBHXsR8GVuCWUZaiC/e7D+flkWNJJG4nvyjLVODymI7wAPlLpV4+OsaWL99k5fz7KPv+rbgmm7vIXxY75GBDrshIJX8K/AX5S6rH6k4s1w4ulRPnAC7X65+RSn5Pwb+qaIzgxopkL5bLcDlOS6mwHQAPgzmzLoN/Rz1K/tLoBHAznj+xrEdOJfeCORu3lD+O8WYXcD6p5NWDeZrLYaTvyR6g9mfyilDrAUCAVHI71r4FV8yj0BN1gMsRsoxU8mux901ERrdicUAq2QmcCfwzxQ22DgFfAk4jlfwaqSWNuCSqmgLcoOl2YBnWLqvbAJSxneTnlZkMXMGasg9kH8O9z3+Am8VXiD5c3ts3DbYjhTpvcYBbAh4+P3wGz59TcvuW7bhz2AjnHzPSrIB6sp3oIGcv0RWvjy11RkB+gZEhUTmgGoMLCCyBgmbx9eDGupfTXrPVVCvpIK5IwaXAKaSSlw8WcxApTXsyQyr5L7jP6D2MeF4f0R7g/UA7qSW7Yu5dZbmJMV8lf3w+G1fJvMzHX5ImlfxH3PjpHgofPwHsxZ07TyOVfCDO7kXwiL7Z+xjYci07FolV7S4BztW+tBf4e7wNXwBzHrASlx9wMsPvSKVxA6jdwA+BB0gld1W4t5X0dVyS5Fxx5dOJupDeGlPbUR7GzRQrh2rMYtpC/r9nVxX6URvcbN4rWeNfg+Es3Gc4iVuuOomj56IMLhiyH3dX8ofAlgrm+dkHXEx5bo70UdzAZjRR77NjCTh6rjyIpbuKSxevZXhOnQylLAlcsTSN57+NqOU7homMPIMrHqnkXuC9eP7luMT1K3G5aibjlr0N6cdd3G7Hvcd/PjiDsRp88t9DXWU83rPAexk+/ohrRu+duIF5eCl2YZXHo7QnA+BavA13gFkEvBPILexQykySWrEZ914IB8v7sOwtod2byR+rgBurVUov+e/zXgq/8B+7VLILWIHnvw73nn87bknbJI5+x/TiZo3cDXyviueBctmL+04dizTue/Iglr2018zs0IO4glKln0fyZXDjnXqwlfKN08N2VeQoqeR24N2D39kp3L/vZNx39tDfe+h9uR8X/Lkbl1u8Wjej9wEfY/h5urSxZSq5Gc8/n/xUDb14GxMVufF+9G8xlB7oXbg8f1Nwf4uhMUMad97ch6uS/hMSdhvnVShfqlu6/M7/v707xm0agMIA/DuKUAWo6sABGFh6BFL2mo0DIDGwgARiZ+cEiAH1Aqyw1B2QWDBX6MTACSJURQxVzOCkiQRpQ4G6hu+bYivDkyJbzp+X99IuHrmZ9hr+kORZyh1d2/RC0XUB51bVV/KzALBpxrn714fsA7/roB5k2mymKK5mMfT7OE0zSTEY6/Tjn9D+hWYrPwSAzTjlji6fvqrqF0mez46mKYpr2b3t82S1qh6kfW7dTBsATjMPvLoLE4Bl1ceNWUf3RtrrtA0Am3yd/RDERTmoh2lOwthh2nvmcZKjFMVRdjv8ntA+293IPMR3D6dH+hsAAgB0oarfZ7HA6DDlaLvLcgAA4CyXfwYgAMBlUdVbSe4sn+mqFAAAWJcAEABgHfv1IO3GwvnYgkmSve4KAgCA9QgAAQDWUeRekidLZ96lKM6/uAYAAC6IGYAAAKepPg2T5n7abr/5NsJxku2Ul2ZbKQAArKQDEABglaq+lTQvk7zOIvz7luSp8A8AgL4Ynv0WAID/1uMkj5aOJ0kephy96ageAAD4ZToAAQBW20synb3+nOSB8A8AgL4xAxAA4DRV/TbJYZJXKUdfui4HAAAAAPiT9uvrXZcAAAAAAAAAAAAAAAAAAAAAAAAAAAAAAAAAAAAAAAAAAAAAAAAAAAAAAAAAAAAAAAAAAAAAAAAAAAAAAAAAAAAAAAAAAAAAAAAAAAAAAAAAAAAAAAAAAAAAAAAAAAAAAAAAAAAAAAAAAAAAAAAAAAAAAAAAAAAAAAAAAAAAAAAAAAAAAAAAAAAAAAAAAAAAAAAAAAAAAAAAQB99B3R5DZkh2oUyAAAAAElFTkSuQmCC;" vertex="1" parent="1">
          <mxGeometry y="-10" width="352" height="110" as="geometry" />
        </mxCell>
        <mxCell id="zIQvrJ37hkbYqZpQsWY6-6" value="&lt;span style=&quot;font-size: 20px;&quot;&gt;Contact&lt;/span&gt;" style="text;html=1;align=center;verticalAlign=middle;whiteSpace=wrap;rounded=0;" vertex="1" parent="1">
          <mxGeometry x="430" y="32.5" width="72" height="45" as="geometry" />
        </mxCell>
        <mxCell id="zIQvrJ37hkbYqZpQsWY6-7" value="&lt;span style=&quot;font-size: 20px;&quot;&gt;FAQ&lt;/span&gt;" style="text;html=1;align=center;verticalAlign=middle;whiteSpace=wrap;rounded=0;" vertex="1" parent="1">
          <mxGeometry x="502" y="32.5" width="72" height="45" as="geometry" />
        </mxCell>
        <mxCell id="zIQvrJ37hkbYqZpQsWY6-8" value="&lt;span style=&quot;font-size: 20px;&quot;&gt;Over ons&lt;/span&gt;" style="text;html=1;align=center;verticalAlign=middle;whiteSpace=wrap;rounded=0;" vertex="1" parent="1">
          <mxGeometry x="574" y="32.5" width="86" height="45" as="geometry" />
        </mxCell>
        <mxCell id="zIQvrJ37hkbYqZpQsWY6-9" value="&lt;span style=&quot;font-size: 20px;&quot;&gt;Account&lt;/span&gt;" style="text;html=1;align=center;verticalAlign=middle;whiteSpace=wrap;rounded=0;" vertex="1" parent="1">
          <mxGeometry x="670" y="32.5" width="72" height="45" as="geometry" />
        </mxCell>
        <mxCell id="zIQvrJ37hkbYqZpQsWY6-10" value="&lt;h1 style=&quot;margin-top: 0px;&quot;&gt;&lt;font style=&quot;font-size: 36px;&quot; color=&quot;#ffffff&quot;&gt;FAQ:&lt;/font&gt;&lt;/h1&gt;&lt;p&gt;&lt;font style=&quot;font-size: 16px;&quot; color=&quot;#ffffff&quot;&gt;Here are many questions related to our organisation. Also common IT related problems are located in here.&lt;/font&gt;&lt;/p&gt;" style="text;html=1;whiteSpace=wrap;overflow=hidden;rounded=0;" vertex="1" parent="1">
          <mxGeometry x="40" y="141" width="480" height="130" as="geometry" />
        </mxCell>
        <mxCell id="zIQvrJ37hkbYqZpQsWY6-11" value="" style="endArrow=none;html=1;rounded=0;strokeColor=#663300;exitX=0;exitY=0.25;exitDx=0;exitDy=0;entryX=1;entryY=0.25;entryDx=0;entryDy=0;" edge="1" parent="1" source="zIQvrJ37hkbYqZpQsWY6-2" target="zIQvrJ37hkbYqZpQsWY6-2">
          <mxGeometry width="50" height="50" relative="1" as="geometry">
            <mxPoint x="170" y="350" as="sourcePoint" />
            <mxPoint x="220" y="300" as="targetPoint" />
          </mxGeometry>
        </mxCell>
        <mxCell id="zIQvrJ37hkbYqZpQsWY6-13" value="&lt;h1 style=&quot;margin-top: 0px;&quot;&gt;&lt;span style=&quot;color: rgb(255, 255, 255); background-color: initial;&quot;&gt;How to get to the Home page?&lt;/span&gt;&lt;/h1&gt;&lt;h1 style=&quot;margin-top: 0px;&quot;&gt;&lt;span style=&quot;color: rgb(255, 255, 255); background-color: initial;&quot;&gt;&lt;span style=&quot;font-weight: 400;&quot;&gt;&lt;font style=&quot;font-size: 16px;&quot;&gt;Click our Uneed-IT logo. Or click the &quot;Home&quot; button in the navbar at the top right of the page.&amp;nbsp;&lt;/font&gt;&lt;/span&gt;&lt;/span&gt;&lt;br&gt;&lt;/h1&gt;" style="text;html=1;whiteSpace=wrap;overflow=hidden;rounded=0;" vertex="1" parent="1">
          <mxGeometry x="40" y="310" width="480" height="120" as="geometry" />
        </mxCell>
        <mxCell id="zIQvrJ37hkbYqZpQsWY6-14" value="&lt;h1 style=&quot;margin-top: 0px;&quot;&gt;&lt;span style=&quot;color: rgb(255, 255, 255); background-color: initial;&quot;&gt;Where is Uneed-IT?&lt;/span&gt;&lt;/h1&gt;&lt;h1 style=&quot;margin-top: 0px;&quot;&gt;&lt;font color=&quot;#ffffff&quot;&gt;&lt;span style=&quot;font-size: 16px; font-weight: 400;&quot;&gt;&amp;nbsp;We are located at: Zuidbaan 514, 2841 MD Moordrecht, Netherlands&lt;/span&gt;&lt;/font&gt;&lt;br&gt;&lt;/h1&gt;" style="text;html=1;whiteSpace=wrap;overflow=hidden;rounded=0;" vertex="1" parent="1">
          <mxGeometry x="40" y="465" width="480" height="120" as="geometry" />
        </mxCell>
        <mxCell id="zIQvrJ37hkbYqZpQsWY6-15" value="&lt;h1 style=&quot;margin-top: 0px;&quot;&gt;&lt;span style=&quot;color: rgb(255, 255, 255); background-color: initial;&quot;&gt;How to contact Uneed-IT?&lt;/span&gt;&lt;/h1&gt;&lt;h1 style=&quot;margin-top: 0px;&quot;&gt;&lt;font color=&quot;#ffffff&quot;&gt;&lt;span style=&quot;font-size: 16px; font-weight: 400;&quot;&gt;&amp;nbsp;Our contact information is located at the contact page&amp;nbsp;in the navbar at the top right of the page.&lt;/span&gt;&lt;/font&gt;&lt;br&gt;&lt;/h1&gt;" style="text;html=1;whiteSpace=wrap;overflow=hidden;rounded=0;" vertex="1" parent="1">
          <mxGeometry x="40" y="630" width="480" height="120" as="geometry" />
        </mxCell>
        <mxCell id="zIQvrJ37hkbYqZpQsWY6-16" value="" style="endArrow=none;html=1;rounded=0;strokeColor=#663300;exitX=0;exitY=0.25;exitDx=0;exitDy=0;entryX=1;entryY=0.25;entryDx=0;entryDy=0;" edge="1" parent="1">
          <mxGeometry width="50" height="50" relative="1" as="geometry">
            <mxPoint y="780" as="sourcePoint" />
            <mxPoint x="830" y="780" as="targetPoint" />
          </mxGeometry>
        </mxCell>
      </root>
    </mxGraphModel>
  </diagram>
</mxfile>
